<?xml version="1.0" encoding="utf-8"?>
<!-- Generator: Adobe Illustrator 19.2.1, SVG Export Plug-In . SVG Version: 6.00 Build 0)  -->
<svg version="1.1" id="圖層_1" xmlns="http://www.w3.org/2000/svg" xmlns:xlink="http://www.w3.org/1999/xlink" x="0px" y="0px"
	 viewBox="0 0 504.4 161" style="enable-background:new 0 0 504.4 161;" xml:space="preserve">
<style type="text/css">
	.st0{clip-path:url(#SVGID_2_);}
	.st1{fill:#006794;}
	.st2{fill:#FFFFE5;}
	.st3{fill:#00396E;}
	.st4{fill:#00CCFB;}
	.st5{fill:#008581;}
	.st6{opacity:0.5;}
	.st7{fill:#00D4A6;}
	.st8{opacity:0.3;fill:#00396E;enable-background:new    ;}
	.st9{fill:#696B6D;}
	.st10{fill:#484B4C;}
	.st11{fill:none;}
	.st12{fill:#7B7D80;}
	.st13{fill:#2C2E30;}
	.st14{fill:#B6B8BA;}
	.st15{fill:#282A2C;}
	.st16{fill:#E6E7E8;}
	.st17{fill:#545658;}
	.st18{fill:#96A5A8;}
	.st19{fill:#292D2F;}
	.st20{fill:#FFFFFF;}
	.st21{fill:#3F4244;}
	.st22{fill:#17181A;}
	.st23{fill:#FF7B06;}
</style>
<title>earth_smile</title>
<g>
	<g id="圖層_1_1_">
		<g>
			<defs>
				<rect id="SVGID_1_" y="0" width="511.1" height="160.9"/>
			</defs>
			<clipPath id="SVGID_2_">
				<use xlink:href="#SVGID_1_"  style="overflow:visible;"/>
			</clipPath>
			<g class="st0">
				<g>
					<g>
						<g>
							<path class="st1" d="M184.6,68c22.1,22.9,54.8,37.1,89.7,39c31.7,1.7,65.4-6.4,97.3-23.3l5,9.4
								c-33.6,17.9-69.2,26.5-102.8,24.6c-37.5-2-72.8-17.4-96.8-42.3"/>
							<g>
								
									<ellipse transform="matrix(0.8831 -0.4692 0.4692 0.8831 -2.9249 179.9807)" class="st2" cx="359.7" cy="95.9" rx="4.9" ry="16.9"/>
								<path class="st2" d="M355.9,86.4c4.6-6.8,10.7-12.3,17.8-16.2c0.7-0.4,1.8-0.7,2.2,0c0.2,0.5,0.2,1,0,1.4
									c-0.9,2.6-2.4,5-4.4,7c6.9-4,23.4-11.9,25-9.6s-13.5,9.4-21,12.8c7.8-1.9,24.3-9.5,25.4-7.5s-17.1,10.9-21.3,13.4
									c5.7-2.4,20.8-7.7,21.3-6s-12.4,7.8-18.8,10.3c4.1-1.2,17.1-5.1,17.2-3.4s-21.7,12.3-34.2,15.1"/>
								<path class="st3" d="M371.2,73.1c-0.4,0.6-0.9,1.2-1.3,1.8c-0.8,1-2,2.3-3.2,3.5s-2.4,2.4-3.4,3.3c-0.5,0.5-1.1,1-1.7,1.4
									c0.2-0.7,0.6-1.4,0.9-2c1.6-2.8,3.9-5.2,6.7-6.9C369.9,73.7,370.6,73.4,371.2,73.1z"/>
								<path class="st3" d="M365.5,107.3c0,0-0.3-0.2-0.8-0.5c-0.7-0.5-1.4-1-2-1.5c-0.9-0.8-1.7-1.6-2.5-2.5
									c-0.4-0.5-0.9-1-1.3-1.6s-0.8-1.1-1.2-1.7s-0.7-1.2-1-1.8s-0.6-1.2-0.9-1.8c-0.5-1.1-0.9-2.2-1.3-3.3
									c-0.2-0.8-0.4-1.6-0.6-2.4c-0.1-0.6-0.1-0.9-0.1-0.9s0.2,0.3,0.5,0.8l1.2,2.2l0.8,1.4l0.9,1.6c0.6,1.1,1.3,2.2,2,3.3
									s1.5,2.2,2.2,3.3c0.4,0.5,0.7,1,1.1,1.5l1,1.3l1.5,2C365.3,107,365.5,107.3,365.5,107.3z"/>
								<path class="st3" d="M352.6,86.1c-0.2-0.1-0.4-0.2-0.6-0.3c-0.6-0.4-0.7-1.3-0.2-1.9c0,0,0,0,0.1-0.1
									c0.1-0.2,0.3-0.3,0.5-0.4c0.2,0.1,0.3,0.3,0.5,0.4c0.2,0.2,0.4,0.5,0.4,0.8c0,0.3-0.1,0.6-0.2,0.9
									C352.8,85.8,352.7,86,352.6,86.1z"/>
							</g>
						</g>
						<g>
							<circle class="st4" cx="177" cy="177" r="177"/>
							<g>
								<path class="st5" d="M56.5,274.3l2.9-13.9l12.4-7.3l25.5-5.8l-4.4-14.6v-20.4l-3.6-18.2l-10.9-14.6L66,175.8l-13.1-10.2v-19
									l8.8-5.1l18.2-10.9l17.5-2.9l10.9-13.9l-2.2-13.1l-8.8-22.6l-21.9-9.5l-16.8-9.5l-5.5-8.6c-69.8,68.4-71,180.4-2.7,250.2
									c0.5,0.5,0.9,0.9,1.4,1.4l6-8.2L56.5,274.3z"/>
								<path class="st5" d="M200.9,323.9L187.8,313l-26.3-17.5l-17.5,0.7l-11.7,5.1l-10.3-13.2L94.4,283l-15.3,5.9L64.9,314
									c31.6,25.9,71.2,40,112,40c8,0,16-0.5,24-1.6l-5.9-8L200.9,323.9z"/>
								<path class="st5" d="M129.4,65L144,75.9l19-0.7l12.4,2.2l6.6,14.6l19,10.2l-11.7,16l-21.9,3.6l-10.9,0.7
									c0,0-9.5,26.3-11.7,26.3s-17.5,4.4-17.5,4.4l-8.8,13.9l7.3,46.7l2.9,21.9l5,23.4l16,16l22.6,5.8l21.9-3.6l11.7-11.7
									l15.4-6.5l10.9-19l-0.7-16l-15.3-13.1l-3.6-11.7l8.8-23.3l-1.5-29.2l-0.7-22.7l24.8,2.2l11.7,5.8l16-14.6l10.2-10.9
									l0.7-16.8l-2.2-14.6l20.5-5.1l8.8,6.6l9.9-4.5c-47.4-64.3-132-89-206.5-60.2l4,29.7L129.4,65z"/>
								<path class="st5" d="M318.4,195.5l-8-5.1l-17.5,0.7l-11,16.8l-1.5,23.3l-2.9,13.9l-16.8,8l-19,10.9l-5.8,13.9l-8.8,10.2
									l-10.9,19.7l8,21.9l4,16.6C293.7,326.5,341.9,270.7,352,203c-3.4-1.7-8.9-6.8-8.9-6.8L318.4,195.5z"/>
							</g>
							<polygon class="st5" points="104.9,136.9 92.3,143 77.9,143.9 63.1,147.4 59.6,161.3 70.5,168.3 84.8,167.4 92.7,158.7 
								102.3,156.5 111.8,146.9 111,137.8 							"/>
							<path class="st5" d="M159.6,83.9c-1.7,0-10,1.7-10.5,3.5s-1.7,16.6-1.7,16.6l8.3,5.2l12.6-1.3l7.4-7.8l-2.6-9.1v-3.5
								L159.6,83.9z"/>
							<path class="st5" d="M113.9,256.4c-1.3-0.4-13.1,0.9-13.1,0.9l-3.5,11.8l4.4,7l13.1,2.2l11.8,5.2l8.3,2.2l3.5-10l-5.2-8.8
								L113.9,256.4z"/>
							<g class="st6">
								<path class="st7" d="M140.8,30.3c0.4-1.6,0.9-3.1,1.4-4.6s1-3,1.6-4.5s1.2-3,1.8-4.4l0.9-2.2c0.3-0.7,0.6-1.5,1-2.2l1.1-2.5
									l1.2,2.4c0.7,1.4,1.4,2.7,2,4.1s1.3,2.8,1.9,4.2s1.2,2.8,1.8,4.2s1.1,2.9,1.5,4.4c-1-1.2-1.8-2.5-2.7-3.8s-1.7-2.6-2.4-3.9
									s-1.5-2.6-2.3-4s-1.5-2.7-2.2-4l2.4-0.1c-0.3,0.7-0.7,1.4-1,2.2l-1,2.2c-0.7,1.4-1.4,2.9-2.1,4.3s-1.5,2.8-2.3,4.2
									S141.7,28.9,140.8,30.3z"/>
								<path class="st7" d="M24.3,150.4c0.4-1.6,0.9-3.1,1.4-4.6s1-3,1.6-4.5s1.2-3,1.8-4.4l0.9-2.2c0.3-0.7,0.6-1.5,1-2.2l1.1-2.5
									l1.2,2.4c0.7,1.4,1.4,2.7,2,4.1s1.3,2.8,1.9,4.2s1.2,2.8,1.8,4.2s1.1,2.9,1.5,4.4c-1-1.2-1.8-2.5-2.7-3.8s-1.7-2.6-2.4-3.9
									s-1.5-2.6-2.3-4s-1.5-2.7-2.2-4l2.4-0.1c-0.3,0.7-0.7,1.5-1,2.2l-1,2.2c-0.7,1.4-1.4,2.9-2.1,4.3s-1.5,2.8-2.3,4.2
									S25.3,149.1,24.3,150.4z"/>
								<path class="st7" d="M175.3,39.5c0.4-1.6,0.9-3.1,1.4-4.6s1-3,1.6-4.5s1.2-3,1.8-4.4l0.9-2.2c0.3-0.7,0.6-1.5,1-2.2l1.1-2.5
									l1.2,2.4c0.7,1.4,1.4,2.7,2,4.1s1.3,2.8,1.9,4.2s1.2,2.8,1.8,4.2s1.1,2.9,1.5,4.4c-1-1.2-1.8-2.5-2.7-3.8s-1.7-2.6-2.4-3.9
									s-1.5-2.6-2.3-4s-1.5-2.7-2.2-4l2.4-0.1c-0.3,0.7-0.7,1.4-1,2.2l-1,2.2c-0.7,1.4-1.4,2.9-2.1,4.3c-0.8,1.4-1.5,2.8-2.3,4.2
									S176.3,38.2,175.3,39.5z"/>
								<path class="st7" d="M35.8,199.1c0.4-1.6,0.9-3.1,1.4-4.6s1-3,1.6-4.5s1.2-3,1.8-4.4l0.9-2.2c0.3-0.7,0.6-1.5,1-2.2l1.1-2.5
									l1.2,2.4c0.7,1.4,1.4,2.7,2,4.1s1.3,2.8,1.9,4.2s1.2,2.8,1.8,4.2s1.1,2.9,1.5,4.4c-1-1.2-1.8-2.5-2.7-3.8s-1.7-2.6-2.4-3.9
									s-1.5-2.6-2.3-4s-1.5-2.7-2.2-4l2.4-0.1c-0.3,0.7-0.7,1.5-1,2.2l-1,2.2c-0.7,1.4-1.4,2.9-2.1,4.3s-1.5,2.8-2.3,4.2
									S36.8,197.8,35.8,199.1z"/>
								<path class="st7" d="M33,109.8c0.4-1.6,0.9-3.1,1.4-4.6s1-3,1.6-4.5s1.2-3,1.8-4.4l0.9-2.2c0.3-0.7,0.6-1.5,1-2.2l1.1-2.5
									l1.2,2.4c0.7,1.4,1.4,2.7,2,4.1s1.3,2.8,1.9,4.2s1.2,2.8,1.8,4.2s1.1,2.9,1.5,4.4c-1-1.2-1.8-2.5-2.7-3.8s-1.7-2.6-2.4-3.9
									s-1.5-2.6-2.3-4s-1.5-2.7-2.2-4l2.4-0.1c-0.3,0.7-0.7,1.4-1,2.2l-1,2.2c-0.7,1.4-1.4,2.9-2.1,4.3s-1.5,2.8-2.3,4.2
									S33.9,108.4,33,109.8z"/>
								<path class="st7" d="M226.3,51.2c0.4-1.6,0.9-3.1,1.4-4.6s1-3,1.6-4.5s1.2-3,1.8-4.4l0.9-2.2c0.3-0.7,0.6-1.5,1-2.2l1.2-2.5
									l1.2,2.4c0.7,1.4,1.4,2.7,2,4.1s1.3,2.8,1.9,4.2s1.2,2.8,1.8,4.2s1.1,2.9,1.5,4.4c-1-1.2-1.8-2.5-2.7-3.8s-1.7-2.6-2.4-3.9
									s-1.5-2.6-2.3-4s-1.5-2.7-2.2-4l2.3-0.1c-0.3,0.7-0.7,1.4-1,2.2l-1,2.2c-0.7,1.4-1.4,2.9-2.2,4.3s-1.5,2.8-2.3,4.2
									S227.2,49.9,226.3,51.2z"/>
								<path class="st7" d="M192.4,139.3c0.4-1.6,0.9-3.1,1.4-4.6s1-3,1.6-4.5s1.2-3,1.8-4.4l0.9-2.2c0.3-0.7,0.6-1.5,1-2.2
									l1.1-2.5l1.2,2.4c0.7,1.4,1.4,2.7,2,4.1s1.3,2.8,1.9,4.2s1.2,2.8,1.8,4.2s1.1,2.9,1.5,4.4c-1-1.2-1.8-2.5-2.7-3.8
									s-1.7-2.6-2.4-3.9s-1.5-2.6-2.3-4s-1.5-2.7-2.2-4l2.4-0.1c-0.3,0.7-0.7,1.5-1,2.2l-1,2.2c-0.7,1.4-1.4,2.9-2.1,4.3
									s-1.5,2.8-2.3,4.2S193.3,138,192.4,139.3z"/>
								<path class="st7" d="M69.7,109.7c0.4-1.6,0.9-3.1,1.4-4.6s1-3,1.6-4.5s1.2-3,1.8-4.4l0.9-2.2c0.3-0.7,0.6-1.5,1-2.2l1.1-2.5
									l1.2,2.4c0.7,1.4,1.4,2.7,2,4.1s1.3,2.8,1.9,4.2s1.2,2.8,1.8,4.2s1.1,2.9,1.5,4.4c-1-1.2-1.8-2.5-2.7-3.8s-1.7-2.6-2.4-3.9
									s-1.5-2.6-2.3-4s-1.5-2.7-2.2-4l2.4-0.1c-0.3,0.7-0.7,1.4-1,2.2l-1,2.2c-0.7,1.4-1.4,2.9-2.1,4.3s-1.5,2.8-2.3,4.2
									S70.6,108.4,69.7,109.7z"/>
								<path class="st7" d="M149.2,199.7c0.4-1.6,0.9-3.1,1.4-4.6s1-3,1.6-4.5s1.2-3,1.8-4.4l0.9-2.2c0.3-0.7,0.6-1.5,1-2.2
									l1.1-2.5l1.2,2.4c0.7,1.4,1.4,2.7,2,4.1s1.3,2.8,1.9,4.2s1.2,2.8,1.8,4.2s1.1,2.9,1.5,4.4c-1-1.2-1.8-2.5-2.7-3.8
									s-1.7-2.6-2.4-3.9s-1.5-2.6-2.3-4s-1.5-2.7-2.2-4l2.4-0.1c-0.3,0.7-0.7,1.5-1,2.2l-1,2.2c-0.7,1.4-1.4,2.9-2.1,4.3
									s-1.5,2.8-2.3,4.2S150.2,198.4,149.2,199.7z"/>
								<path class="st7" d="M188.1,184.9c0.4-1.6,0.9-3.1,1.4-4.6s1-3,1.6-4.5s1.2-3,1.8-4.4l0.9-2.2c0.3-0.7,0.6-1.5,1-2.2
									l1.1-2.5l1.2,2.4c0.7,1.4,1.4,2.7,2,4.1s1.3,2.8,1.9,4.2s1.2,2.8,1.8,4.2s1.1,2.9,1.5,4.4c-1-1.2-1.8-2.5-2.7-3.8
									s-1.7-2.6-2.4-3.9s-1.5-2.6-2.3-4s-1.5-2.7-2.2-4l2.3-0.1c-0.3,0.7-0.7,1.5-1,2.2l-1,2.2c-0.7,1.4-1.4,2.9-2.1,4.3
									s-1.5,2.8-2.3,4.2S189,183.6,188.1,184.9z"/>
								<path class="st7" d="M291.6,281.1c0.4-1.6,0.9-3.1,1.4-4.6s1-3,1.6-4.5s1.2-3,1.8-4.4l0.9-2.2c0.3-0.7,0.6-1.5,1-2.2
									l1.2-2.5l1.2,2.4c0.7,1.4,1.4,2.7,2,4.1s1.3,2.8,1.9,4.2s1.2,2.8,1.8,4.2s1.1,2.9,1.5,4.4c-1-1.2-1.8-2.5-2.7-3.8
									s-1.7-2.6-2.4-3.9s-1.5-2.6-2.3-4s-1.5-2.7-2.2-4l2.3-0.1c-0.3,0.7-0.7,1.5-1,2.2l-1,2.2c-0.7,1.4-1.4,2.9-2.2,4.3
									s-1.5,2.8-2.3,4.2S292.5,279.7,291.6,281.1z"/>
								<path class="st7" d="M153.5,243.5c0.4-1.6,0.9-3.1,1.4-4.6s1-3,1.6-4.5s1.2-3,1.8-4.4l0.9-2.2c0.3-0.7,0.6-1.5,1-2.2
									l1.1-2.5l1.2,2.4c0.7,1.4,1.4,2.7,2,4.1s1.3,2.8,1.9,4.2s1.2,2.8,1.8,4.2s1.1,2.9,1.5,4.4c-1-1.2-1.8-2.5-2.7-3.8
									s-1.7-2.6-2.4-3.9s-1.5-2.6-2.3-4s-1.5-2.7-2.2-4l2.4-0.1c-0.3,0.7-0.7,1.5-1,2.2l-1,2.2c-0.7,1.4-1.4,2.9-2.1,4.3
									s-1.5,2.8-2.3,4.2S154.5,242.2,153.5,243.5z"/>
								<path class="st7" d="M190.5,229.3c0.4-1.6,0.9-3.1,1.4-4.6s1-3,1.6-4.5s1.2-3,1.8-4.4l0.9-2.2c0.3-0.7,0.6-1.5,1-2.2
									l1.1-2.5l1.2,2.4c0.7,1.4,1.4,2.7,2,4.1s1.3,2.8,1.9,4.2s1.2,2.8,1.8,4.2s1.1,2.9,1.5,4.4c-1-1.2-1.8-2.5-2.7-3.8
									s-1.7-2.6-2.4-3.9s-1.5-2.6-2.3-4s-1.5-2.7-2.2-4l2.4-0.1c-0.3,0.7-0.7,1.5-1,2.2l-1,2.2c-0.7,1.4-1.4,2.9-2.1,4.3
									s-1.5,2.8-2.3,4.2S191.4,228,190.5,229.3z"/>
								<path class="st7" d="M256.5,286c0.4-1.6,0.9-3.1,1.4-4.6s1-3,1.6-4.5s1.2-3,1.8-4.4l0.9-2.2c0.3-0.7,0.6-1.5,1-2.2l1.2-2.5
									l1.2,2.4c0.7,1.4,1.4,2.7,2,4.1s1.3,2.8,1.9,4.2s1.2,2.8,1.8,4.2s1.1,2.9,1.5,4.4c-1-1.2-1.8-2.5-2.7-3.8s-1.7-2.6-2.4-3.9
									s-1.5-2.6-2.3-4s-1.5-2.7-2.2-4l2.3-0.1c-0.3,0.7-0.7,1.5-1,2.2l-1,2.2c-0.7,1.4-1.4,2.9-2.2,4.3s-1.5,2.8-2.3,4.2
									S257.4,284.7,256.5,286z"/>
								<path class="st7" d="M92.5,313.7c0.4-1.6,0.9-3.1,1.4-4.6s1-3,1.6-4.5s1.2-3,1.8-4.4l0.9-2.2c0.3-0.7,0.6-1.5,1-2.2l1.1-2.5
									l1.2,2.4c0.7,1.4,1.4,2.7,2,4.1s1.3,2.8,1.9,4.2s1.2,2.8,1.8,4.2s1.1,2.9,1.5,4.4c-1-1.2-1.8-2.5-2.7-3.8s-1.7-2.6-2.4-3.9
									s-1.5-2.6-2.3-4s-1.5-2.7-2.2-4l2.4-0.1c-0.3,0.7-0.7,1.5-1,2.2l-1,2.2c-0.7,1.4-1.4,2.9-2.1,4.3s-1.5,2.8-2.3,4.2
									S93.5,312.4,92.5,313.7z"/>
								<path class="st7" d="M160.3,335.9c0.4-1.6,0.9-3.1,1.4-4.6s1-3,1.6-4.5s1.2-3,1.8-4.4l0.9-2.2c0.3-0.7,0.6-1.5,1-2.2
									l1.1-2.5l1.2,2.4c0.7,1.4,1.4,2.7,2,4.1s1.3,2.8,1.9,4.2s1.2,2.8,1.8,4.2s1.1,2.9,1.5,4.4c-1-1.2-1.8-2.5-2.7-3.8
									s-1.7-2.6-2.4-3.9s-1.5-2.6-2.3-4s-1.5-2.7-2.2-4l2.4-0.1c-0.3,0.7-0.7,1.5-1,2.2l-1,2.2c-0.7,1.4-1.4,2.9-2.1,4.3
									s-1.5,2.8-2.3,4.2S161.3,334.6,160.3,335.9z"/>
								<path class="st7" d="M152.9,173.8c0.4-1.6,0.9-3.1,1.4-4.6s1-3,1.6-4.5s1.2-3,1.8-4.4l0.9-2.2c0.3-0.7,0.6-1.5,1-2.2
									l1.1-2.5l1.2,2.4c0.7,1.4,1.4,2.7,2,4.1s1.3,2.8,1.9,4.2s1.2,2.8,1.8,4.2s1.1,2.9,1.5,4.4c-1-1.2-1.8-2.5-2.7-3.8
									s-1.7-2.6-2.4-3.9s-1.5-2.6-2.3-4s-1.5-2.7-2.2-4l2.4-0.1c-0.3,0.7-0.7,1.5-1,2.2l-1,2.2c-0.7,1.4-1.4,2.9-2.1,4.3
									s-1.5,2.8-2.3,4.2S153.8,172.5,152.9,173.8z"/>
								<path class="st7" d="M193.8,71.5c0.4-1.6,0.9-3.1,1.4-4.6s1-3,1.6-4.5s1.2-3,1.8-4.4l0.9-2.2c0.3-0.7,0.6-1.5,1-2.2l1.1-2.5
									l1.2,2.4c0.7,1.4,1.4,2.7,2,4.1s1.3,2.8,1.9,4.2s1.2,2.8,1.8,4.2s1.1,2.9,1.5,4.4c-1-1.2-1.8-2.5-2.7-3.8s-1.7-2.6-2.4-3.9
									s-1.5-2.6-2.3-4s-1.5-2.7-2.2-4l2.4-0.1c-0.3,0.7-0.7,1.4-1,2.2l-1,2.2c-0.7,1.4-1.4,2.9-2.1,4.3s-1.5,2.8-2.3,4.2
									S194.8,70.2,193.8,71.5z"/>
								<path class="st7" d="M238.8,105.4c0.4-1.6,0.9-3.1,1.4-4.6s1-3,1.6-4.5s1.2-3,1.8-4.4l0.9-2.2c0.3-0.7,0.6-1.5,1-2.2
									l1.1-2.5l1.2,2.4c0.7,1.4,1.4,2.7,2,4.1s1.3,2.8,1.9,4.2s1.2,2.8,1.8,4.2s1.1,2.9,1.5,4.4c-1-1.2-1.8-2.5-2.7-3.8
									s-1.7-2.6-2.4-3.9s-1.5-2.6-2.3-4s-1.5-2.7-2.2-4l2.3-0.1c-0.3,0.7-0.7,1.4-1,2.2l-1,2.2c-0.7,1.4-1.4,2.9-2.2,4.3
									s-1.5,2.8-2.3,4.2S239.7,104.1,238.8,105.4z"/>
								<path class="st7" d="M35.4,239.8c0.4-1.6,0.9-3.1,1.4-4.6s1-3,1.6-4.5s1.2-3,1.8-4.4l0.9-2.2c0.3-0.7,0.6-1.5,1-2.2l1.1-2.5
									l1.2,2.4c0.7,1.4,1.4,2.7,2,4.1s1.3,2.8,1.9,4.2s1.2,2.8,1.8,4.2s1.1,2.9,1.5,4.4c-1-1.2-1.8-2.5-2.7-3.8s-1.7-2.6-2.4-3.9
									s-1.5-2.6-2.3-4s-1.5-2.7-2.2-4l2.4-0.1c-0.3,0.7-0.7,1.5-1,2.2l-1,2.2c-0.7,1.4-1.4,2.9-2.1,4.3s-1.5,2.8-2.3,4.2
									S36.4,238.5,35.4,239.8z"/>
								<path class="st7" d="M64.4,223.2c0.4-1.6,0.9-3.1,1.4-4.6s1-3,1.6-4.5s1.2-3,1.8-4.4l0.9-2.2c0.3-0.7,0.6-1.5,1-2.2l1.1-2.5
									l1.2,2.4c0.7,1.4,1.4,2.7,2,4.1s1.3,2.8,1.9,4.2s1.2,2.8,1.8,4.2s1.1,2.9,1.5,4.4c-1-1.2-1.8-2.5-2.7-3.8s-1.7-2.6-2.4-3.9
									s-1.5-2.6-2.3-4s-1.5-2.7-2.2-4l2.4-0.1c-0.3,0.7-0.7,1.5-1,2.2l-1,2.2c-0.7,1.4-1.4,2.9-2.1,4.3s-1.5,2.8-2.3,4.2
									S65.3,221.8,64.4,223.2z"/>
								<path class="st7" d="M262.9,64.1c0.4-1.6,0.9-3.1,1.4-4.6s1-3,1.6-4.5s1.2-3,1.8-4.4l1-2.2c0.3-0.7,0.6-1.5,1-2.2l1.2-2.5
									l1.2,2.4c0.7,1.4,1.4,2.7,2,4.1s1.3,2.8,1.9,4.2s1.2,2.8,1.8,4.2s1.1,2.9,1.5,4.4c-1-1.2-1.8-2.5-2.7-3.8s-1.7-2.6-2.4-3.9
									s-1.5-2.6-2.3-4s-1.5-2.7-2.2-4l2.3-0.1c-0.3,0.7-0.7,1.4-1,2.2l-1,2.2c-0.7,1.4-1.4,2.9-2.2,4.3s-1.5,2.8-2.3,4.2
									S263.8,62.8,262.9,64.1z"/>
								<path class="st7" d="M301.5,232.4c0.4-1.6,0.9-3.1,1.4-4.6s1-3,1.6-4.5s1.2-3,1.8-4.4l0.9-2.2c0.3-0.7,0.6-1.5,1-2.2
									l1.2-2.5l1.2,2.4c0.7,1.4,1.4,2.7,2,4.1s1.3,2.8,1.9,4.2s1.2,2.8,1.8,4.2s1.1,2.9,1.5,4.4c-1-1.2-1.8-2.5-2.7-3.8
									s-1.7-2.6-2.4-3.9s-1.5-2.6-2.3-4s-1.5-2.7-2.2-4l2.3-0.1c-0.3,0.7-0.7,1.5-1,2.2l-1,2.2c-0.7,1.4-1.4,2.9-2.2,4.3
									s-1.5,2.8-2.3,4.2S302.4,231,301.5,232.4z"/>
								<path class="st7" d="M242.3,318c0.4-1.6,0.9-3.1,1.4-4.6s1-3,1.6-4.5s1.2-3,1.8-4.4l0.9-2.2c0.3-0.7,0.6-1.5,1-2.2l1.2-2.5
									l1.2,2.4c0.7,1.4,1.4,2.7,2,4.1s1.3,2.8,1.9,4.2s1.2,2.8,1.8,4.2s1.1,2.9,1.5,4.4c-1-1.2-1.8-2.5-2.7-3.8s-1.7-2.6-2.4-3.9
									s-1.5-2.6-2.3-4s-1.5-2.7-2.2-4l2.3-0.1c-0.3,0.7-0.7,1.5-1,2.2l-1,2.2c-0.7,1.4-1.4,2.9-2.2,4.3s-1.5,2.8-2.3,4.2
									S243.2,316.7,242.3,318z"/>
								<path class="st7" d="M130.8,327.3c0.4-1.6,0.9-3.1,1.4-4.6s1-3,1.6-4.5s1.2-3,1.8-4.4l0.9-2.2c0.3-0.7,0.6-1.5,1-2.2
									l1.1-2.5l1.2,2.4c0.7,1.4,1.4,2.7,2,4.1s1.3,2.8,1.9,4.2s1.2,2.8,1.8,4.2s1.1,2.9,1.5,4.4c-1-1.2-1.8-2.5-2.7-3.8
									s-1.7-2.6-2.4-3.9s-1.5-2.6-2.3-4s-1.5-2.7-2.2-4l2.4-0.1c-0.3,0.7-0.7,1.5-1,2.2l-1,2.2c-0.7,1.4-1.4,2.9-2.1,4.3
									s-1.5,2.8-2.3,4.2S131.7,326,130.8,327.3z"/>
							</g>
							<g>
								<path class="st2" d="M73.1,42.8l0.8,0.1h0.7l0.7-0.1l0.7-0.2l0.7-0.2l0.6-0.3c0.4-0.2,0.8-0.5,1.2-0.8l0.5-0.4l0.5-0.5
									l0.4-0.5l0.4-0.6l0.3-0.6L81,38l0.2-0.6c0-0.2,0.1-0.4,0.1-0.6l0.7-3.5l1.1,3.4c0.1,0.3,0.2,0.6,0.4,0.8
									c0.1,0.3,0.3,0.5,0.5,0.8c0.2,0.2,0.4,0.5,0.6,0.7c0.2,0.2,0.5,0.4,0.7,0.6c0.2,0.2,0.5,0.3,0.8,0.5
									c0.3,0.1,0.5,0.3,0.8,0.4c0.3,0.1,0.6,0.2,0.9,0.2c0.3,0,0.6,0.1,0.9,0.1H89h0.4c0.3,0,0.6-0.1,0.9-0.2
									c0.3-0.1,0.6-0.2,0.8-0.3c0.3-0.1,0.5-0.3,0.8-0.4c0.3-0.2,0.5-0.4,0.7-0.6c0.2-0.2,0.4-0.4,0.6-0.6
									c0.2-0.2,0.4-0.5,0.5-0.7c0.2-0.3,0.3-0.5,0.4-0.8l0.9-2.1l0.9,2c0.3,0.8,0.9,1.5,1.5,2.1c0.3,0.3,0.7,0.6,1.1,0.8
									c0.2,0.1,0.4,0.2,0.6,0.3c0.2,0.1,0.4,0.2,0.6,0.2s0.5,0.1,0.7,0.1s0.5,0.1,0.7,0.1c0.5,0,1,0,1.4-0.1
									c1-0.2,1.9-0.6,2.7-1.1c-0.7,0.8-1.6,1.4-2.5,1.8c-0.5,0.2-1,0.3-1.6,0.4c-0.3,0-0.5,0.1-0.8,0.1c-0.3,0-0.6,0-0.8-0.1
									c-0.6-0.1-1.1-0.2-1.6-0.4c-0.5-0.2-1-0.5-1.5-0.8c-0.9-0.7-1.7-1.5-2.3-2.6l1.7-0.1c-0.1,0.4-0.3,0.8-0.5,1.1
									c-0.2,0.3-0.4,0.7-0.7,1c-0.2,0.3-0.5,0.6-0.8,0.9c-0.3,0.3-0.6,0.5-0.9,0.8c-0.3,0.2-0.7,0.4-1,0.6
									c-0.4,0.2-0.8,0.3-1.1,0.5c-0.4,0.1-0.8,0.2-1.2,0.3L89,42.9h-0.6c-0.4,0-0.8-0.1-1.2-0.2c-0.4-0.1-0.8-0.2-1.2-0.4
									c-0.4-0.2-0.7-0.3-1.1-0.5c-0.3-0.2-0.7-0.4-1-0.7c-0.3-0.3-0.6-0.5-0.9-0.8c-0.3-0.3-0.5-0.7-0.7-1
									c-0.2-0.3-0.4-0.7-0.6-1.1c-0.2-0.4-0.3-0.8-0.4-1.2l1.8-0.1c-0.1,0.3-0.1,0.6-0.2,0.9l-0.3,0.8l-0.4,0.8l-0.5,0.7l-0.5,0.6
									l-0.6,0.6l-0.6,0.5l-0.7,0.4l-0.7,0.4l-0.8,0.3l-0.8,0.2l-0.8,0.1h-0.8l-0.8-0.1L73.8,43L73.1,42.8z"/>
								<path class="st2" d="M87.1,58.9c0.9,0.1,1.9,0.1,2.8-0.1c0.9-0.2,1.7-0.5,2.4-1c0.4-0.2,0.7-0.5,1-0.8
									c0.2-0.2,0.4-0.4,0.6-0.5c0.3-0.3,0.8-0.4,1.2-0.4h0.2h0.1l0,0c0.1,0,0.3,0.1,0.4,0.1c0.2,0.1,0.3,0.2,0.5,0.4l0.5,0.5
									c0.3,0.3,0.6,0.5,1,0.7c0.7,0.5,1.4,0.8,2.3,0.9c0.4,0.1,0.8,0.1,1.2,0.2h0.6c0.2,0,0.4,0,0.6-0.1c1.7-0.2,3.2-1,4.3-2.3
									l0.9-1l0.5,1.1c0.1,0.2,0.2,0.4,0.3,0.6c0.1,0.2,0.3,0.4,0.4,0.6c0.3,0.4,0.7,0.7,1.1,0.9c0.4,0.3,0.9,0.5,1.4,0.6
									c0.2,0.1,0.5,0.1,0.8,0.2c0.3,0,0.5,0.1,0.8,0.1c-0.5,0.2-1.1,0.3-1.6,0.3c-0.6,0-1.2-0.1-1.7-0.3c-0.6-0.2-1.1-0.5-1.6-0.9
									c-0.2-0.2-0.5-0.4-0.7-0.6c-0.2-0.2-0.4-0.5-0.5-0.8l1.3,0.1c-0.6,0.9-1.4,1.6-2.3,2.2c-0.9,0.6-1.9,1-3,1.2
									c-0.3,0-0.6,0.1-0.8,0.1h-0.8c-0.5,0-1.1-0.1-1.6-0.2c-1.1-0.3-2.1-0.7-2.9-1.3c-0.4-0.3-0.9-0.7-1.2-1.1L95,57.9l-0.1-0.1
									H95c0.1,0,0,0-0.1,0c-0.2,0.1-0.4,0.2-0.5,0.4c-0.4,0.3-0.9,0.6-1.4,0.8c-1,0.4-2,0.6-3,0.5C89,59.5,88,59.3,87.1,58.9z"/>
								<path class="st2" d="M113.8,86.3c1.1,0.2,2.1,0.2,3.2-0.1c0.3-0.1,0.6-0.2,1-0.3c0.3-0.1,0.6-0.3,0.9-0.5
									c0.3-0.2,0.5-0.4,0.8-0.6c0.2-0.2,0.5-0.4,0.7-0.7c0.2-0.2,0.4-0.5,0.5-0.8l0.8-1.1l0.8,1.1c0.5,0.8,1.2,1.4,1.9,2
									c0.6,0.5,1.4,0.9,2.3,1h0.1h0.2h0.2c0.2,0,0.4,0,0.6-0.1c0.4-0.1,0.7-0.2,1.1-0.4c0.3-0.2,0.6-0.4,0.8-0.7
									c0.1-0.1,0.2-0.3,0.2-0.4c0.1-0.2,0.1-0.3,0.1-0.5l0.2-2.2l1.4,1.5c0.4,0.5,0.9,0.9,1.4,1.2c0.5,0.4,1.1,0.6,1.7,0.9
									c0.6,0.2,1.3,0.4,1.9,0.5c0.3,0,0.7,0.1,1,0.1c0.3,0,0.7,0,1,0c-0.3,0.2-0.7,0.3-1,0.4c-0.4,0.1-0.7,0.2-1.1,0.2
									c-0.7,0.1-1.5,0.1-2.2,0c-0.8-0.1-1.5-0.3-2.2-0.6c-0.7-0.3-1.4-0.7-2-1.2l1.6-0.7c0,0.3,0,0.7-0.1,1
									c-0.1,0.3-0.2,0.7-0.4,1c-0.3,0.6-0.8,1.1-1.3,1.5c-0.5,0.4-1.1,0.6-1.7,0.8c-0.3,0.1-0.7,0.1-1,0.1h-0.8h-0.2
									c-1.2-0.2-2.3-0.8-3.3-1.6c-0.9-0.8-1.6-1.6-2.1-2.6h1.6c-0.3,0.3-0.6,0.6-0.9,0.9c-0.3,0.3-0.6,0.5-1,0.7
									c-0.4,0.2-0.7,0.4-1.1,0.5c-0.4,0.1-0.8,0.2-1.2,0.3c-0.4,0.1-0.8,0.1-1.2,0.1c-0.4,0-0.8,0-1.2-0.1
									c-0.4-0.1-0.8-0.2-1.1-0.3C114.4,86.6,114.1,86.5,113.8,86.3z"/>
								<path class="st2" d="M118.4,117.9c0.4,0,0.8-0.1,1.2-0.1c0.4-0.1,0.7-0.2,1.1-0.3c0.3-0.1,0.7-0.3,1-0.4
									c0.3-0.2,0.6-0.4,1-0.6c0.3-0.2,0.6-0.4,0.9-0.7c0.3-0.2,0.5-0.5,0.7-0.8c0.2-0.3,0.4-0.6,0.6-0.9c0.2-0.3,0.3-0.6,0.4-0.9
									l0.9-2.2l0.9,2.3c0.1,0.2,0.2,0.5,0.3,0.7c0.1,0.2,0.2,0.4,0.4,0.7c0.6,0.8,1.4,1.5,2.3,1.9c0.2,0.1,0.5,0.2,0.7,0.3
									c0.2,0.1,0.5,0.1,0.7,0.1h0.5h0.3c0.2,0,0.5,0,0.7-0.1c0.5-0.1,1-0.3,1.4-0.5l0.7-0.4c0.2-0.1,0.4-0.3,0.6-0.5
									c0.4-0.3,0.7-0.7,1-1.2l0.9-1.5l0.8,1.6c0.1,0.1,0.1,0.3,0.2,0.5l0.3,0.4l0.3,0.4l0.4,0.4c0.3,0.2,0.5,0.5,0.8,0.7
									c0.3,0.2,0.7,0.4,1,0.5c0.3,0.1,0.7,0.2,1.1,0.3c0.4,0.1,0.8,0.1,1.1,0.1h0.6l0.6-0.1l0.6-0.1l0.6-0.2l-0.5,0.4l-0.5,0.3
									l-0.6,0.3l-0.6,0.2c-0.4,0.1-0.9,0.1-1.3,0.1h-0.7l-0.7-0.1c-0.4-0.1-0.9-0.2-1.3-0.4l-0.6-0.3l-0.6-0.4l-0.5-0.5l-0.5-0.5
									l-0.4-0.6c-0.1-0.2-0.3-0.4-0.4-0.6l1.7,0.1c-0.6,1.3-1.7,2.3-2.9,3c-0.6,0.3-1.3,0.6-2,0.7c-0.4,0.1-0.7,0.1-1.1,0.1h-0.6
									h-0.5c-0.4-0.1-0.8-0.2-1.1-0.3c-0.3-0.1-0.7-0.2-1-0.4c-0.6-0.3-1.2-0.7-1.8-1.2c-1.1-1-1.8-2.2-2.1-3.6l1.7,0.1
									c-0.2,0.4-0.4,0.8-0.7,1.1c-0.3,0.4-0.6,0.7-0.9,1c-0.3,0.3-0.6,0.6-1,0.8c-0.4,0.2-0.7,0.4-1.1,0.6
									c-0.4,0.2-0.8,0.3-1.2,0.4c-0.8,0.2-1.6,0.3-2.5,0.2C119.2,118.1,118.8,118,118.4,117.9z"/>
								<path class="st2" d="M121.3,134.5c0.4,0,0.7,0,1,0s0.7,0,1-0.1s0.6-0.1,0.9-0.2s0.6-0.2,0.9-0.3c0.3-0.1,0.5-0.3,0.8-0.4
									c0.3-0.2,0.5-0.3,0.7-0.5c0.2-0.2,0.4-0.4,0.6-0.6c0.2-0.2,0.4-0.4,0.5-0.7l0.8-1.2l1,1.3c0.1,0.1,0.2,0.3,0.3,0.5l0.4,0.4
									l0.4,0.4l0.5,0.3l0.5,0.3l0.5,0.3l0.6,0.2l0.6,0.2l0.6,0.1l0.6,0.1h0.6h0.6l0.6-0.1l0.6-0.1l0.6-0.2l0.7-0.3
									c-0.1,0.2-0.3,0.4-0.5,0.6l-0.5,0.5l-0.6,0.4c-0.2,0.1-0.5,0.2-0.7,0.3c-0.5,0.2-1,0.3-1.5,0.4l-0.8,0.1h-0.8l-0.7,0
									l-0.8-0.2l-0.8-0.3l-0.7-0.4c-0.2-0.1-0.5-0.3-0.7-0.5l-0.6-0.5l-0.5-0.6c-0.2-0.2-0.3-0.5-0.5-0.7l1.8,0.1
									c-0.2,0.3-0.5,0.6-0.8,0.9c-0.3,0.3-0.6,0.5-1,0.7c-0.3,0.2-0.7,0.4-1.1,0.5c-0.4,0.1-0.7,0.2-1.1,0.3
									c-0.4,0.1-0.8,0.1-1.1,0.1c-0.4,0-0.8,0-1.1-0.1c-0.4-0.1-0.7-0.2-1.1-0.3C121.9,134.9,121.6,134.7,121.3,134.5z"/>
								<path class="st2" d="M92.9,184.8c0.8,0.3,1.6,0.5,2.5,0.4c0.8,0,1.5-0.2,2.2-0.5l0.3-0.1l0.2-0.1c0.2-0.1,0.3-0.2,0.4-0.3
									c0.3-0.2,0.5-0.5,0.8-0.8c0.5-0.5,0.8-1.2,1-1.8l0.8-2.9l1.3,2.7c0.1,0.3,0.3,0.6,0.5,0.8c0.2,0.3,0.4,0.5,0.6,0.8
									c0.2,0.2,0.5,0.4,0.8,0.6c0.3,0.2,0.6,0.4,0.9,0.5c0.3,0.2,0.6,0.3,1,0.4c0.3,0.1,0.7,0.2,1.1,0.3l0.5,0.1h0.6
									c0.4,0,0.8,0,1.2-0.1c-0.2,0.1-0.3,0.2-0.5,0.4l-0.6,0.3c-0.4,0.2-0.8,0.3-1.2,0.4c-0.4,0.1-0.9,0.1-1.3,0.1
									c-0.4,0-0.9-0.1-1.3-0.2c-0.4-0.1-0.9-0.3-1.3-0.5c-0.4-0.2-0.8-0.5-1.1-0.8l-0.5-0.5l-0.5-0.5l-0.4-0.6l-0.3-0.6l2.1-0.2
									c-0.3,1-0.8,2-1.5,2.7c-0.4,0.4-0.8,0.7-1.2,1c-0.2,0.1-0.5,0.2-0.7,0.4l-0.4,0.1l-0.3,0.1c-0.5,0.1-1,0.2-1.5,0.2
									c-0.5,0-1-0.1-1.5-0.2c-0.5-0.1-0.9-0.3-1.3-0.6C93.6,185.5,93.2,185.2,92.9,184.8z"/>
								<path class="st2" d="M100.1,205.4c0.3,0,0.7,0,1,0c0.3,0,0.6-0.1,0.9-0.1c0.3-0.1,0.5-0.2,0.8-0.3c0.3-0.1,0.5-0.3,0.7-0.4
									c0.2-0.1,0.4-0.3,0.6-0.5c0.2-0.2,0.4-0.4,0.5-0.6c0.2-0.2,0.3-0.4,0.4-0.6c0.1-0.2,0.2-0.4,0.3-0.6l0.8-2.5l1.2,2.5
									l0.2,0.4c0.1,0.1,0.2,0.2,0.2,0.4l0.3,0.4c0.1,0.1,0.2,0.2,0.3,0.3c0.2,0.2,0.5,0.4,0.8,0.6l0.4,0.2
									c0.1,0.1,0.3,0.1,0.5,0.2c0.3,0.1,0.7,0.2,1,0.3c0.2,0,0.3,0.1,0.5,0.1h0.5h0.5l0.5-0.1l0.6-0.1l0.6-0.2
									c-0.1,0.2-0.3,0.3-0.4,0.5l-0.5,0.4c-0.4,0.2-0.8,0.4-1.2,0.6c-0.4,0.1-0.9,0.2-1.3,0.3c-0.4,0-0.9,0-1.3-0.1
									c-0.4-0.1-0.9-0.2-1.3-0.4l-0.6-0.3l-0.6-0.4c-0.2-0.1-0.4-0.3-0.5-0.5l-0.5-0.5c-0.1-0.2-0.3-0.4-0.4-0.6l-0.3-0.7l2-0.1
									c-0.1,0.4-0.3,0.7-0.5,1.1c-0.2,0.3-0.5,0.6-0.8,0.9c-0.3,0.3-0.6,0.5-0.9,0.7c-0.3,0.2-0.7,0.3-1,0.5
									c-0.7,0.2-1.4,0.3-2.2,0.2c-0.3-0.1-0.7-0.2-1-0.3l-0.5-0.3L100.1,205.4z"/>
								<path class="st2" d="M101,225c0.4,0,0.7,0,1.1,0l0.5,0l0.5-0.1c0.3-0.1,0.6-0.2,0.9-0.3c0.3-0.1,0.6-0.3,0.8-0.4
									s0.5-0.3,0.8-0.5c0.2-0.2,0.4-0.4,0.6-0.6c0.2-0.2,0.4-0.4,0.5-0.7c0.1-0.1,0.1-0.2,0.2-0.4l0.2-0.4l0.9-2.1l1.1,2.1
									c0.1,0.1,0.1,0.3,0.2,0.4l0.2,0.4c0.1,0.1,0.2,0.2,0.3,0.3l0.3,0.3l0.3,0.3l0.4,0.3c0.3,0.2,0.5,0.3,0.8,0.5l0.5,0.2
									l0.5,0.1c0.3,0.1,0.7,0.1,1,0.1h0.5h0.5l0.5-0.1l0.5-0.2c-0.1,0.2-0.3,0.3-0.4,0.5l-0.5,0.4c-0.3,0.2-0.7,0.4-1.1,0.5
									c-0.8,0.3-1.7,0.3-2.5,0.1l-0.6-0.1l-0.6-0.2c-0.4-0.2-0.8-0.4-1.2-0.7l-0.5-0.5c-0.1-0.2-0.3-0.4-0.5-0.5l-0.4-0.6
									c-0.1-0.2-0.2-0.4-0.3-0.6h2c-0.2,0.4-0.4,0.8-0.6,1.1c-0.3,0.3-0.5,0.7-0.9,1c-0.6,0.5-1.4,1-2.2,1.2
									c-0.4,0.1-0.8,0.2-1.2,0.2c-0.4,0-0.8,0-1.2,0c-0.4-0.1-0.8-0.2-1.1-0.3l-0.5-0.3L101,225z"/>
								<path class="st2" d="M67.5,265l0.3,0.1c0.2,0.1,0.5,0.2,0.7,0.3c0.8,0.3,1.7,0.3,2.5,0.3c0.5-0.1,1-0.2,1.5-0.4
									c0.5-0.2,1-0.6,1.4-0.9c0.4-0.4,0.8-0.9,1-1.4c0.1-0.1,0.1-0.3,0.2-0.4s0.1-0.4,0.3-0.6c0.2-0.5,0.6-0.9,1-1.3
									c0.4-0.3,0.8-0.4,1.3-0.4c0.2,0,0.5,0.1,0.7,0.2c0.2,0.1,0.3,0.2,0.5,0.4c0.1,0.1,0.2,0.2,0.2,0.3l0.1,0.2
									c0.1,0.1,0.2,0.2,0.3,0.3c0.4,0.4,0.9,0.8,1.4,1.1c0.5,0.3,1,0.5,1.6,0.5c0.5,0.1,1,0.1,1.6,0c0.8-0.1,1.6-0.4,2.4-0.9
									c0.3-0.2,0.6-0.4,0.8-0.6c-0.1,0.3-0.3,0.6-0.5,0.9c-1,1.3-2.6,2.1-4.3,2.1c-0.8,0-1.6-0.1-2.3-0.4
									c-0.8-0.3-1.5-0.8-2.1-1.4c-0.2-0.2-0.3-0.3-0.5-0.5l-0.3-0.4h0c0,0,0.1,0.1,0.2,0.1c0.1,0,0.2,0,0.3,0
									c-0.1,0.1-0.3,0.3-0.4,0.5l-0.2,0.4c-0.1,0.2-0.2,0.4-0.3,0.6c-0.4,0.7-1,1.4-1.7,1.9c-0.6,0.5-1.4,0.8-2.1,1
									c-0.7,0.2-1.3,0.2-2,0.1c-1-0.1-1.9-0.5-2.7-1.1c-0.2-0.2-0.4-0.3-0.6-0.5L67.5,265z"/>
								<path class="st2" d="M148.7,289.4c0.4,0,0.8-0.1,1.2-0.1c0.4-0.1,0.8-0.2,1.2-0.3c0.4-0.1,0.8-0.3,1.1-0.4
									c0.4-0.2,0.7-0.3,1.1-0.5c0.3-0.2,0.7-0.4,1-0.7c0.3-0.3,0.6-0.5,0.9-0.8c0.3-0.3,0.5-0.6,0.8-0.9c0.2-0.3,0.4-0.7,0.6-1
									l0.7-1.2l0.6,1.3c0.5,1.1,1.3,2,2.3,2.7c0.5,0.3,1,0.6,1.6,0.8c0.3,0.1,0.6,0.2,0.9,0.2c0.3,0.1,0.5,0.1,0.8,0.1h0.5h0.4
									c0.3,0,0.6-0.1,0.9-0.1c0.3-0.1,0.6-0.1,0.8-0.2c0.3-0.1,0.5-0.2,0.8-0.4c1-0.5,1.9-1.3,2.5-2.3l1-1.8l0.9,1.9
									c0.1,0.2,0.2,0.4,0.3,0.6c0.1,0.2,0.3,0.4,0.4,0.6c1,1.1,2.4,1.8,3.9,1.9h0.4h0.3c0.2,0,0.5-0.1,0.7-0.2
									c0.5-0.1,1-0.4,1.4-0.6c0.4-0.3,0.8-0.6,1.2-1c0.3-0.4,0.6-0.8,0.9-1.3l0.5-1l0.8,0.7c0.4,0.3,0.7,0.6,1.1,0.8
									c0.4,0.2,0.8,0.5,1.2,0.7c0.4,0.2,0.9,0.4,1.3,0.5c0.5,0.1,0.9,0.2,1.4,0.3c0.5,0.1,1,0.1,1.4,0.1c0.5,0,1,0,1.5,0
									c0.5,0,1-0.1,1.5-0.2c0.5-0.1,1-0.3,1.4-0.4c-0.4,0.3-0.9,0.5-1.3,0.7c-0.5,0.2-0.9,0.4-1.4,0.5c-0.5,0.1-1,0.2-1.5,0.3
									c-0.5,0-1,0.1-1.5,0.1c-0.5,0-1-0.1-1.6-0.2c-0.5-0.1-1-0.2-1.5-0.4c-0.5-0.2-1-0.4-1.5-0.6c-0.5-0.3-0.9-0.5-1.4-0.9
									l1.3-0.3c-0.5,1.3-1.3,2.4-2.5,3.2c-0.6,0.4-1.2,0.7-1.8,0.9c-0.3,0.1-0.7,0.2-1,0.3l-0.6,0.1h-0.5c-0.7,0-1.4-0.1-2.1-0.3
									c-0.7-0.2-1.3-0.5-1.9-0.9c-1.2-0.8-2.1-1.8-2.7-3.1l1.9,0.1c-1.3,2-3.3,3.4-5.6,3.8c-0.4,0.1-0.8,0.1-1.1,0.1h-0.6h-0.5
									c-0.4,0-0.8-0.1-1.2-0.2c-0.4-0.1-0.7-0.2-1.1-0.4c-0.7-0.3-1.4-0.7-2-1.2c-1.2-0.9-2.1-2.2-2.6-3.6l1.3,0.1
									c-0.3,0.4-0.5,0.7-0.8,1.1c-0.3,0.3-0.6,0.6-1,0.9c-0.3,0.3-0.7,0.5-1.1,0.8c-0.4,0.2-0.8,0.4-1.2,0.6
									c-0.8,0.3-1.6,0.6-2.5,0.7c-0.4,0.1-0.8,0.1-1.3,0.1C149.5,289.6,149.1,289.5,148.7,289.4z"/>
								<path class="st2" d="M186.9,301.5c0.4,0.1,0.9,0.2,1.4,0.3c0.4,0,0.9,0,1.4,0c0.4,0,0.9-0.1,1.3-0.2
									c0.4-0.1,0.8-0.3,1.2-0.4c0.4-0.2,0.7-0.4,1.1-0.6c0.3-0.2,0.6-0.5,0.9-0.8c0.3-0.3,0.5-0.6,0.7-1c0.2-0.4,0.5-0.7,0.9-0.9
									c0.1,0,0.2-0.1,0.3-0.1h0.2c0.2,0,0.4,0,0.6,0.1c0.3,0.1,0.5,0.2,0.7,0.4c0.2,0.2,0.4,0.4,0.6,0.6c0.1,0.1,0.2,0.3,0.4,0.4
									c0.3,0.2,0.6,0.4,0.9,0.6c0.7,0.3,1.4,0.4,2.1,0.3h0.2c0.1,0,0.2-0.1,0.4-0.1c0.2-0.1,0.3-0.1,0.5-0.2
									c0.3-0.2,0.7-0.4,0.9-0.6c0.6-0.5,1-1.1,1.2-1.9l0.5-1.7l0.9,1.3c0.3,0.4,0.7,0.8,1.2,1.1c0.2,0.2,0.5,0.3,0.7,0.5
									c0.3,0.1,0.5,0.3,0.8,0.4c0.3,0.1,0.5,0.2,0.8,0.3c0.3,0.1,0.6,0.1,0.9,0.2c0.6,0.1,1.2,0.1,1.8,0c-0.3,0.1-0.6,0.3-0.9,0.4
									c-0.3,0.1-0.7,0.2-1,0.2c-0.7,0.1-1.3,0.1-2,0c-0.7-0.1-1.3-0.3-1.9-0.6c-0.6-0.3-1.2-0.7-1.7-1.2l1.5-0.4
									c-0.2,1.1-0.7,2.2-1.5,3c-0.4,0.4-0.9,0.7-1.4,1c-0.3,0.1-0.5,0.3-0.8,0.4c-0.2,0.1-0.3,0.1-0.4,0.1s-0.3,0.1-0.5,0.1
									c-1.2,0.2-2.3,0-3.4-0.5c-0.5-0.3-1-0.6-1.4-1c-0.2-0.2-0.4-0.4-0.6-0.6l-0.3-0.4c0,0,0,0,0.1,0c0.1,0,0.2,0,0.2,0
									c0.1,0,0,0,0,0c0,0,0.1,0,0.1,0c0.2-0.1,0.1-0.1,0,0.1c-0.6,0.9-1.5,1.6-2.4,2.1c-0.5,0.2-1,0.4-1.5,0.6
									c-0.5,0.1-1,0.2-1.5,0.3c-0.5,0-1,0-1.5-0.1C188.6,302.5,187.7,302.1,186.9,301.5z"/>
								<path class="st2" d="M211.4,273.5c0.8,0.4,1.7,0.6,2.5,0.5c0.4,0,0.8-0.1,1.2-0.2c0.2-0.1,0.4-0.1,0.6-0.2
									c0.2-0.1,0.3-0.2,0.5-0.3l0.3-0.2l0.2-0.1l0.5-0.4c0.3-0.2,0.6-0.5,0.9-0.8c0.6-0.6,1.2-1.2,1.7-1.9l0.8-1l0.9,1l0.3,0.4
									l0.3,0.3l0.4,0.3l0.4,0.3c0.3,0.2,0.6,0.3,0.9,0.5c0.3,0.1,0.6,0.2,1,0.3c0.3,0.1,0.7,0.1,1,0.2h0.5h0.5h0.5l0.5-0.1
									c0.4-0.1,0.7-0.2,1.1-0.3c-0.1,0.1-0.3,0.3-0.4,0.5l-0.5,0.4c-0.3,0.2-0.7,0.4-1.1,0.6c-0.4,0.2-0.8,0.3-1.2,0.3l-0.6,0.1
									h-0.7c-0.4,0-0.9-0.1-1.3-0.2c-0.4-0.1-0.8-0.3-1.3-0.4c-0.4-0.2-0.8-0.4-1.2-0.7c-0.4-0.3-0.7-0.6-1-1h1.7
									c-0.6,0.8-1.3,1.5-2,2.2c-0.4,0.3-0.8,0.6-1.2,0.9c-0.2,0.1-0.5,0.3-0.7,0.4l-0.4,0.2l-0.3,0.1c-0.3,0.1-0.5,0.2-0.8,0.2
									c-0.3,0-0.5,0.1-0.8,0.1c-0.5,0-1,0-1.5-0.1c-0.5-0.1-1-0.3-1.4-0.6C211.9,274.2,211.6,273.9,211.4,273.5z"/>
								<path class="st2" d="M239.9,237.2c0.3,0.1,0.5,0.2,0.8,0.4c0.3,0.1,0.6,0.2,0.8,0.3c1.1,0.3,2.2,0.4,3.4,0.3
									c0.5-0.1,1.1-0.2,1.6-0.4l0.4-0.1l0.3-0.1c0.2-0.1,0.5-0.2,0.7-0.4c0.5-0.3,0.9-0.6,1.3-1c0.4-0.4,0.7-0.7,1-1.2
									c0.3-0.4,0.6-0.9,0.8-1.3l0.9-2l1,2c0.2,0.3,0.4,0.6,0.6,0.9c0.3,0.3,0.5,0.5,0.8,0.7c0.6,0.4,1.3,0.6,2,0.6h0.3h0.2
									c0.2,0,0.4-0.1,0.5-0.1c0.4-0.1,0.7-0.3,1-0.5c0.3-0.2,0.6-0.5,0.9-0.7c0.3-0.3,0.5-0.6,0.6-0.9l0.8-1.5l0.7,1.4
									c0.1,0.2,0.3,0.5,0.4,0.7c0.2,0.2,0.4,0.4,0.6,0.6c0.2,0.2,0.5,0.4,0.7,0.5c0.3,0.2,0.5,0.3,0.8,0.4
									c0.3,0.1,0.6,0.2,0.9,0.3c0.3,0.1,0.6,0.1,0.9,0.2c0.3,0,0.7,0,1,0c0.3,0,0.7-0.1,1-0.2c-0.3,0.2-0.6,0.3-0.9,0.5
									c-0.3,0.1-0.7,0.2-1,0.3c-0.3,0.1-0.7,0.1-1,0.1c-0.4,0-0.7-0.1-1.1-0.1c-0.3-0.1-0.7-0.2-1-0.3c-0.3-0.1-0.7-0.3-1-0.5
									c-0.3-0.2-0.6-0.4-0.9-0.7c-0.3-0.3-0.5-0.6-0.7-0.9l1.5-0.1c-0.4,1.1-1,2-1.9,2.6c-0.4,0.3-0.9,0.6-1.5,0.8
									c-0.3,0.1-0.5,0.2-0.8,0.3l-0.5,0.1h-0.4c-2.3,0.1-4.5-1.2-5.5-3.3h1.9c-0.3,0.6-0.7,1.2-1.1,1.7c-0.4,0.5-0.9,1-1.4,1.4
									c-0.5,0.4-1.1,0.7-1.7,1c-0.3,0.1-0.6,0.3-0.9,0.4l-0.5,0.1l-0.5,0.1c-1.3,0.2-2.6,0.2-3.8-0.2
									C241.9,238.7,240.8,238,239.9,237.2z"/>
								<path class="st2" d="M231.5,206.7c0.2,0.2,0.5,0.4,0.7,0.5c0.3,0.1,0.5,0.3,0.8,0.4c0.5,0.2,1.1,0.4,1.7,0.5
									c0.6,0.1,1.1,0.1,1.7,0.1c0.3,0,0.6,0,0.8-0.1c0.3,0,0.6-0.1,0.8-0.2s0.6-0.2,0.8-0.3s0.5-0.2,0.8-0.3
									c0.5-0.2,1-0.5,1.5-0.8c1-0.6,1.9-1.3,2.8-2l0.9-0.8l0.6,1.1c0.1,0.2,0.2,0.4,0.4,0.6c0.2,0.2,0.3,0.4,0.5,0.6
									c1,1.1,2.4,1.7,3.9,1.7h0.4h0.3c0.2,0,0.5-0.1,0.7-0.2c0.5-0.2,0.9-0.4,1.3-0.6c0.8-0.5,1.5-1.3,1.9-2.2l0.6-1.5l1,1.2
									c0.3,0.3,0.6,0.7,0.9,1l0.5,0.5l0.5,0.4l0.6,0.4l0.6,0.3c0.4,0.2,0.9,0.4,1.3,0.5c0.5,0.1,0.9,0.2,1.4,0.3
									c0.5,0.1,1,0.1,1.5,0.1h0.7l0.7-0.1l0.7-0.1l0.7-0.2l-0.7,0.4l-0.7,0.3l-0.7,0.3l-0.8,0.2c-0.5,0.1-1.1,0.1-1.6,0.1h-0.8
									l-0.8-0.1c-0.5-0.1-1.1-0.2-1.6-0.4c-0.5-0.2-1-0.4-1.5-0.6l-0.7-0.4l-0.7-0.5l-0.6-0.5l-0.6-0.6l1.6-0.3
									c-0.5,1.3-1.3,2.4-2.4,3.2c-0.6,0.4-1.2,0.8-1.8,1c-0.3,0.1-0.7,0.2-1,0.3l-0.6,0.1h-0.5c-0.7,0-1.4-0.1-2.1-0.3
									c-1.3-0.4-2.5-1.1-3.4-2.2c-0.5-0.5-0.8-1.1-1.1-1.7l1.5,0.4c-1,0.7-2.1,1.4-3.2,1.9c-0.6,0.3-1.2,0.5-1.8,0.7
									c-0.3,0.1-0.6,0.2-0.9,0.3c-0.3,0.1-0.7,0.1-0.9,0.1s-0.7,0.1-1,0.1s-0.6,0-1,0c-0.6-0.1-1.3-0.2-1.9-0.4
									c-0.6-0.2-1.2-0.5-1.7-0.8C232.3,207.7,231.8,207.2,231.5,206.7z"/>
								<path class="st2" d="M226.2,186.3h0.6h0.5l0.5-0.1l0.5-0.1c0.3-0.1,0.6-0.2,0.9-0.4c0.3-0.2,0.5-0.3,0.8-0.5
									c0.2-0.2,0.5-0.4,0.7-0.6c0.2-0.2,0.4-0.4,0.5-0.7c0.1-0.2,0.3-0.5,0.4-0.7c0.1-0.3,0.2-0.5,0.2-0.8l0.6-3l1.5,2.7
									c0.2,0.3,0.3,0.6,0.5,0.8c0.2,0.3,0.4,0.5,0.7,0.7c0.2,0.2,0.5,0.4,0.8,0.6c0.3,0.2,0.6,0.4,0.9,0.5c0.3,0.2,0.7,0.3,1,0.4
									c0.3,0.1,0.7,0.2,1,0.3l0.5,0.1l0.6,0.1c0.4,0,0.8,0,1.2,0c-0.2,0.1-0.3,0.2-0.5,0.4l-0.6,0.3c-0.4,0.1-0.8,0.3-1.3,0.3
									c-0.4,0-0.9,0-1.3,0c-0.4-0.1-0.9-0.1-1.3-0.3c-0.4-0.1-0.9-0.3-1.3-0.5c-0.4-0.2-0.8-0.5-1.2-0.8c-0.4-0.3-0.7-0.6-1-1
									l-0.4-0.6l-0.3-0.6l2.1-0.3l-0.2,0.7l-0.3,0.6l-0.3,0.6l-0.4,0.5c-0.3,0.3-0.6,0.6-0.9,0.9c-0.3,0.2-0.7,0.5-1.1,0.6
									c-0.4,0.2-0.8,0.3-1.2,0.4c-0.4,0.1-0.8,0.1-1.2,0.1c-0.4,0-0.8-0.1-1.2-0.2l-0.5-0.2L226.2,186.3z"/>
								<path class="st2" d="M229.6,142.7c0.4,0.1,0.8,0.1,1.2,0.1c0.4,0,0.8-0.1,1.1-0.2c0.3-0.1,0.7-0.3,1-0.4
									c0.2-0.1,0.3-0.2,0.5-0.3s0.3-0.2,0.4-0.3s0.3-0.3,0.4-0.4l0.4-0.4c0.2-0.3,0.5-0.6,0.7-0.9c0.4-0.6,0.8-1.3,1.2-2l1.1-1.9
									l0.6,2.2c0.1,0.5,0.3,0.9,0.6,1.3c0.3,0.4,0.6,0.7,1,1c0.4,0.3,0.8,0.5,1.2,0.7c0.2,0.1,0.4,0.1,0.7,0.2
									c0.2,0,0.5,0.1,0.7,0.1h0.4h0.3c0.7-0.1,1.4-0.3,2-0.7c0.4-0.3,0.8-0.6,1.1-1c0.3-0.4,0.6-0.8,0.8-1.2l0.8-1.9l0.8,1.8
									c0.1,0.3,0.3,0.5,0.4,0.8c0.2,0.2,0.4,0.5,0.5,0.7c0.4,0.5,0.9,0.9,1.4,1.2c0.3,0.2,0.6,0.3,0.8,0.5
									c0.3,0.1,0.6,0.2,0.9,0.3c0.3,0.1,0.7,0.2,1,0.2c0.3,0,0.7,0.1,1,0c-0.3,0.1-0.7,0.2-1,0.3c-0.4,0.1-0.7,0.1-1.1,0.1
									c-0.7,0-1.5-0.1-2.2-0.4c-0.7-0.3-1.4-0.6-2-1.1c-0.3-0.2-0.6-0.5-0.8-0.8c-0.3-0.3-0.5-0.6-0.7-0.9l1.6-0.1
									c-0.1,0.3-0.2,0.7-0.3,1c-0.2,0.3-0.3,0.6-0.5,0.9c-0.4,0.6-0.9,1.1-1.4,1.5c-0.3,0.2-0.6,0.4-0.9,0.5
									c-0.3,0.2-0.7,0.3-1,0.4c-0.3,0.1-0.7,0.2-1,0.2l-0.6,0.1h-0.4c-0.4,0-0.7-0.1-1.1-0.1c-0.3-0.1-0.7-0.2-1-0.3
									c-0.6-0.3-1.2-0.6-1.8-1.1c-0.5-0.4-1-1-1.3-1.6c-0.4-0.6-0.6-1.3-0.8-1.9l1.7,0.3c-0.5,0.7-1,1.4-1.6,2
									c-0.3,0.3-0.6,0.6-1,0.9l-0.5,0.4c-0.2,0.1-0.4,0.2-0.5,0.3s-0.4,0.2-0.6,0.3c-0.6,0.2-1.3,0.4-1.9,0.4
									c-0.4,0-0.9,0-1.3-0.1C230.3,143.1,229.9,142.9,229.6,142.7z"/>
								<path class="st2" d="M318.6,178.7c0.8,0.1,1.5,0,2.2-0.3c0.3-0.1,0.7-0.3,1-0.5l0.5-0.3l0.4-0.3c0.2-0.1,0.3-0.3,0.4-0.4
									l0.4-0.4c0.3-0.3,0.5-0.5,0.7-0.8c0.5-0.6,0.9-1.2,1.4-1.8l1.2-1.6l0.5,2c0,0.2,0.1,0.3,0.2,0.5c0.1,0.1,0.2,0.3,0.3,0.4
									c0.2,0.3,0.5,0.5,0.8,0.7c0.3,0.2,0.6,0.3,1,0.4c0.2,0,0.4,0.1,0.5,0.1c0.2,0,0.3,0,0.5,0h0.4l0.2,0c0.2,0,0.4-0.1,0.5-0.2
									c0.4-0.2,0.7-0.3,1.1-0.6c0.7-0.5,1.3-1.1,1.8-1.8l0.9-1.2l0.6,1.3c0.2,0.5,0.6,0.9,0.9,1.3c0.4,0.4,0.8,0.8,1.3,1.1
									c0.2,0.2,0.5,0.3,0.8,0.4c0.3,0.1,0.5,0.2,0.8,0.3c0.6,0.2,1.2,0.3,1.8,0.3c-0.3,0.1-0.6,0.2-0.9,0.3c-0.3,0-0.7,0.1-1,0.1
									c-0.7,0-1.4-0.1-2-0.3c-0.7-0.2-1.3-0.6-1.8-1c-0.6-0.4-1.1-1-1.5-1.5h1.5c-0.5,1-1.2,1.8-2.1,2.5c-0.4,0.4-0.9,0.7-1.5,0.9
									c-0.3,0.1-0.5,0.2-0.8,0.3l-0.5,0.1l-0.4,0.1c-0.3,0-0.7,0-1,0c-0.3,0-0.6-0.1-0.9-0.2c-0.6-0.2-1.1-0.4-1.7-0.8
									c-0.8-0.5-1.4-1.3-1.8-2.2c-0.1-0.3-0.2-0.6-0.2-1l1.7,0.5c-0.5,0.6-1.1,1.2-1.7,1.7c-0.3,0.3-0.6,0.5-1,0.8
									c-0.3,0.2-0.7,0.5-1.1,0.7c-0.4,0.2-0.8,0.4-1.2,0.5c-0.4,0.1-0.8,0.2-1.2,0.3C320.1,179.2,319.3,179,318.6,178.7z"/>
								<path class="st2" d="M290.3,118c2.2-0.7,4.2-2.2,5.6-4.1c0.3-0.5,0.6-0.9,0.9-1.5c0.1-0.3,0.2-0.5,0.3-0.8
									c0.1-0.4,0.4-0.8,0.7-1.1c0.3-0.3,0.6-0.4,1-0.4c0.3,0,0.6,0.1,0.9,0.3c0.3,0.2,0.5,0.4,0.7,0.6c0.4,0.3,0.9,0.7,1.4,0.9
									c0.9,0.6,1.9,0.9,3,1.1c0.5,0.1,1,0.1,1.5,0c0.5-0.1,0.9-0.3,1.3-0.5c0.9-0.6,1.6-1.3,2.1-2.2c0.6-1,1.1-2,1.6-3l0.9-1.9
									l0.9,1.8c0.9,1.6,2.2,2.9,3.8,3.7c0.3,0.1,0.6,0.2,0.8,0.4c0.3,0.1,0.6,0.2,0.8,0.3l0.5,0.1l0.4,0.1c0.3,0,0.6,0.1,0.9,0.1
									c0.3,0,0.6,0,0.9,0s0.6-0.1,0.9-0.1c0.6-0.1,1.3-0.3,1.8-0.5c0.6-0.2,1.2-0.5,1.8-0.9c-0.9,1-2.1,1.8-3.4,2.2
									c-0.6,0.2-1.3,0.4-2,0.5c-0.4,0-0.7,0.1-1.1,0.1h-0.5h-0.5c-0.4,0-0.7-0.1-1.1-0.2c-0.3-0.1-0.7-0.2-1-0.3
									c-0.7-0.3-1.3-0.6-1.9-1c-1.2-0.8-2.3-1.9-3-3.2l1.8-0.1c-0.5,1.2-1,2.3-1.7,3.4c-0.7,1.2-1.7,2.2-2.8,2.9
									c-0.6,0.4-1.3,0.6-2,0.8c-0.7,0.1-1.4,0.1-2.2,0c-1.3-0.2-2.6-0.7-3.7-1.5c-0.5-0.4-1.1-0.7-1.5-1.2
									c-0.2-0.2-0.5-0.5-0.6-0.6s0,0,0.1,0c0.1,0,0.1,0,0.2-0.1c-0.3,0.4-0.6,0.9-0.8,1.3C296.4,116,293.5,117.7,290.3,118z"/>
								<path class="st2" d="M295.9,95c1-0.5,1.9-1.2,2.6-2c0.4-0.4,0.7-0.8,1-1.3c0.3-0.4,0.5-0.9,0.8-1.4l0.4-0.9l0.9,0.7
									c0.8,0.6,1.5,1.3,2.3,1.8c0.7,0.5,1.5,0.8,2.4,1h0.3h0.2c0.2,0,0.4,0,0.6-0.1c0.4-0.1,0.7-0.2,1.1-0.4
									c0.3-0.2,0.6-0.4,0.8-0.7c0.1-0.1,0.2-0.3,0.3-0.4c0.1-0.1,0.1-0.3,0.1-0.4l0.4-2.3l1.3,1.8c0.2,0.3,0.5,0.6,0.7,0.8
									c0.3,0.3,0.5,0.5,0.8,0.8c0.3,0.2,0.6,0.5,0.9,0.7c0.3,0.2,0.7,0.4,1,0.6c0.4,0.2,0.7,0.3,1.1,0.4c0.4,0.1,0.8,0.2,1.1,0.3
									c0.4,0.1,0.8,0.2,1.2,0.2s0.8,0.1,1.2,0.1c-0.4,0.2-0.8,0.3-1.2,0.4c-0.4,0.1-0.9,0.1-1.3,0.1c-0.4,0-0.9,0-1.3-0.1
									c-0.4-0.1-0.9-0.1-1.3-0.3c-0.4-0.1-0.9-0.3-1.3-0.4c-0.4-0.2-0.8-0.4-1.2-0.6c-0.4-0.2-0.8-0.5-1.1-0.8
									c-0.4-0.3-0.7-0.6-1-1l1.8-0.6c0,0.3-0.1,0.7-0.2,1c-0.1,0.3-0.3,0.6-0.5,0.9c-0.4,0.5-0.9,1-1.5,1.3
									c-0.5,0.3-1.1,0.5-1.8,0.6c-0.3,0-0.6,0.1-1,0.1h-0.5l-0.4,0c-1.1-0.2-2.2-0.8-3.1-1.5c-0.8-0.7-1.6-1.4-2.3-2.2l1.3-0.2
									C300.4,93.2,298.3,94.6,295.9,95z"/>
							</g>
							<path class="st8" d="M207.2,306.4c-97.8,0-177-79.3-177-177c0-24,4.9-47.8,14.4-69.9c-64.9,73.1-58.2,185,14.9,249.9
								s185,58.2,249.9-14.9c12.6-14.2,22.8-30.3,30.3-47.7C306.1,284.8,257.9,306.4,207.2,306.4z"/>
						</g>
						<g>
							<g>
								<g>
									<polygon class="st9" points="377.5,117.5 374.5,106.9 372.3,107 369.7,107 366.9,117.6 365.9,121.6 373.8,121.5 
										378.5,121.4 									"/>
									<polygon class="st10" points="377.5,117.5 374.5,106.9 372.3,107 371.5,107 371.5,121.5 373.8,121.5 378.5,121.4 									
										"/>
									<g>
										<path class="st11" d="M372.5,120.4c-0.2,0-0.3,0-0.5,0h1C372.8,120.4,372.7,120.4,372.5,120.4z"/>
										<path class="st9" d="M381.5,124.7c-1.2-2.7-2.3-4.4-3.3-4.4l-5.2,0.1c4.6,0.7,7.7,12.7,7.7,13.5l3.9-1
											C384.6,133,382.6,127.5,381.5,124.7z"/>
										<path class="st12" d="M372.1,120.5l-5.4,0.1c0,0-2.7-1.5-5.6,12.3l4.3,1.4C365.4,134.2,367.5,121.4,372.1,120.5z"/>
									</g>
									<g>
										<path class="st10" d="M372.1,120.5c-4.6,0.9-6.6,13.8-6.6,13.8l3.1,0c0,0,1.1-5.6,4.1-5.7l-0.1-8.1L372.1,120.5
											L372.1,120.5z"/>
										<path class="st13" d="M373,120.5h-0.5l0.1,8.1c3,0,4,5.5,4,5.5l4-0.1C380.7,133.2,377.6,121.2,373,120.5z"/>
									</g>
									<polygon class="st14" points="361.6,133 335.1,245.5 338.8,247.4 365.4,134.2 									"/>
									<polygon class="st14" points="363.5,133.6 336.7,246.3 338.8,247.4 365.4,134.2 									"/>
									<polygon class="st14" points="384,133.1 380.7,134 411.2,245.1 415.8,244.4 									"/>
									<polygon class="st14" points="384,133.1 382.1,133.6 413.4,244.8 415.8,244.4 									"/>
									<path class="st15" d="M369.4,131.5c0.5,0.9,0.7,2,0.8,3l5-0.1c0-1,0.3-2,0.7-3c0,0-1.1-2.9-3.2-2.9
										S369.4,131.5,369.4,131.5z"/>
									<polygon class="st14" points="374.8,134.4 371.2,134.4 370.5,134.5 370.5,241.3 371.2,241.3 375.3,241.2 									"/>
									<polygon class="st14" points="372.5,241.2 375.3,241.2 374.8,134.4 372.5,134.4 									"/>
								</g>
								<path class="st9" d="M335.1,244.2l4.5,0.9c0,0-0.2,3.4-1.9,4S333.1,248.8,335.1,244.2z"/>
								<path class="st9" d="M416.1,244l-5.2,1.2c0,0,0.2,3.4,1.9,4S418.2,248.5,416.1,244z"/>
								<path class="st9" d="M370.3,239.3h5.5c0,0,0.7,3.4-1.1,4.3S368.8,243.6,370.3,239.3z"/>
							</g>
							<path class="st9" d="M341,104.6l-17.6,7.7c0,0-2.4,1.5-1,6.2s4.7,3.5,5.9,3.3s18.4-5.4,18.4-5.4L341,104.6z"/>
							<path class="st9" d="M332.8,113.4c-1.7,0.7-3.4,1.5-5.2,2.3c-0.8,0.4-2.1,0.9-3,0.5c-1.3-0.5-2.1-1.8-1.9-3.2
								c-0.6,0.8-1.3,2.5-0.3,5.5c1.4,4.7,4.7,3.5,5.9,3.3s18.4-5.4,18.4-5.4l-3.6-7.4C339.7,110.5,336.3,112,332.8,113.4z"/>
							<path class="st16" d="M471.6,48l-133.8,56c-0.8,0.3-0.8,4.1,0.6,8.4s3.8,7.4,4.5,7.1l140.9-34.4l-10.6-35.9L471.6,48z"/>
							<g>
								<path class="st16" d="M474.8,54.7l-137.4,53.6c0.1,1.1,0.4,2.2,0.7,3.3l139-49L474.8,54.7z"/>
							</g>
							<path class="st16" d="M453.9,76.4c-22.4,7.4-94.3,30.9-99.6,32.4c-3.6,1-8.3,2.4-12,1.1c-2.4-0.9-4.2-2.9-4.7-5.4
								c-0.4,1.1-0.3,4.4,0.9,8c1.4,4.3,3.8,7.4,4.5,7.1l140.9-34.4l-5.1-17.3C470.5,70.8,462.2,73.7,453.9,76.4z"/>
							<path class="st16" d="M474.7,87.4l9.1-2.2l-10.6-35.9l-1.6-1.3l-7.7,3.2C460.9,64.4,466.6,77,474.7,87.4z"/>
							<g>
								<path class="st9" d="M470.7,72.7c1.8,5,4.6,10.8,8.8,14.6l20.9-5.1l-11.9-40.3l-1.8-1.4l-18.5,7.7
									C465.9,56.2,468,65.2,470.7,72.7z"/>
								<path class="st17" d="M478.5,50.8c3.8-1.2,7.7-2.4,11.6-3.6l-1.6-5.3l-1.8-1.4l-18.5,7.7c-0.6,2-0.9,4.1-1,6.3
									C471,53.3,474.7,52,478.5,50.8z"/>
								<path class="st17" d="M471.8,75.6c1.8,4.2,4.3,8.7,7.7,11.7l20.9-5.1l-4.5-15C488,70.1,480,73,471.8,75.6z"/>
								<ellipse transform="matrix(0.9498 -0.3128 0.3128 0.9498 5.5816 157.4941)" cx="493.6" cy="61.4" rx="8.8" ry="21.9"/>
								<g>
									<path class="st18" d="M487.9,42.6c-0.7,0.3-1.4,0.8-1.8,1.4c3.7,1.4,8.1,7.8,10.9,16.2s3,16.2,0.8,19.5
										c0.7,0.3,1.5,0.3,2.3,0.1c3.9-1.3,4.3-10.7,1-21S491.8,41.3,487.9,42.6z"/>
									<path class="st19" d="M497,60.2c-2.8-8.4-7.2-14.8-10.9-16.2c-2.2,3.3-1.9,11.1,0.8,19.5s7.2,14.8,10.9,16.2
										C500,76.4,499.8,68.6,497,60.2z"/>
								</g>
								
									<ellipse transform="matrix(0.918 -0.3967 0.3967 0.918 18.8181 198.8294)" class="st20" cx="490.1" cy="53.9" rx="2.6" ry="4.8"/>
								
									<ellipse transform="matrix(0.9178 -0.397 0.397 0.9178 15.5991 201.5986)" class="st20" cx="494.8" cy="63.1" rx="1.1" ry="2"/>
							</g>
							<g>
								<path class="st9" d="M322.3,99.2c0,0-1.2,0.4-0.3,2.9s2.6,1.4,2.6,1.4l18.9-7.3l-2.8-6L322.3,99.2z"/>
								<path class="st9" d="M338.7,98.1l4.7-1.8l-2.8-6l-3.9,1.9C336.8,94.3,337.5,96.4,338.7,98.1z"/>
								<polygon class="st21" points="328.8,111.6 326.5,100.5 329,99.9 334.4,109.5 								"/>
								<path class="st21" d="M330.6,102.9l-1.6-2.9l-2.5,0.5l0.7,3.6C328.4,103.8,329.5,103.4,330.6,102.9z"/>
								<path class="st21" d="M328.4,109.9l0.3,1.7l5.6-2l-1.1-1.9C331.7,108.5,330.1,109.3,328.4,109.9z"/>
								<polygon class="st21" points="324.1,97.9 326.5,103.4 330.4,101.9 328.2,95.6 								"/>
								<circle class="st22" cx="327.1" cy="99.9" r="1"/>
								<g>
									<path class="st9" d="M339.1,94.9c0.4,1.1,1.1,2.1,2,2.9l4.3-1.4l-3-8.3L342,88l-3.8,1.9C338,91.6,338.3,93.3,339.1,94.9z"
										/>
									<path class="st17" d="M340.5,90.2c0.8-0.3,1.6-0.6,2.4-0.9l-0.4-1.1L342,88l-3.8,1.9c-0.1,0.4-0.1,0.9-0.1,1.3L340.5,90.2z
										"/>
									<path class="st17" d="M339.4,95.5c0.4,0.9,1,1.7,1.8,2.4l4.3-1.4l-1.1-3.1C342.7,94.1,341.1,94.9,339.4,95.5z"/>
									<ellipse transform="matrix(0.9274 -0.374 0.374 0.9274 -9.5452 135.2489)" cx="343.8" cy="92.2" rx="1.8" ry="4.6"/>
									<g>
										<path class="st18" d="M342.3,88.4c-0.2,0.1-0.3,0.2-0.4,0.3c0.8,0.2,1.8,1.5,2.5,3.2s0.8,3.4,0.4,4.1
											c0.2,0.1,0.3,0.1,0.5,0c0.8-0.3,0.8-2.3-0.1-4.4S343.1,88,342.3,88.4z"/>
										<path class="st19" d="M344.5,91.9c-0.7-1.7-1.7-3-2.5-3.2c-0.4,0.7-0.3,2.4,0.4,4.1s1.7,3,2.5,3.2
											C345.3,95.3,345.2,93.7,344.5,91.9z"/>
									</g>
									
										<ellipse transform="matrix(0.8894 -0.4571 0.4571 0.8894 -3.5517 166.7888)" class="st20" cx="342.9" cy="90.7" rx="0.5" ry="1"/>
									
										<ellipse transform="matrix(0.8912 -0.4535 0.4535 0.8912 -4.5594 166.0992)" class="st20" cx="344" cy="92.6" rx="0.2" ry="0.4"/>
								</g>
							</g>
							<path class="st10" d="M376.4,100.8c-1.3-3.9-2.1-8.8-1-13L360,94.1v0.1c-0.6,1.4-1,2.8-1.1,4.3c-0.1,2.4,0.1,4.8,0.8,7.1
								c0.9,3.5,2.6,6.6,5,9.3l18.1-4.4C379.7,108.3,377.6,104.3,376.4,100.8z"/>
							<path class="st9" d="M360.8,95.8l-1.5,0.5c-0.2,0.7-0.3,1.4-0.3,2.2c0,0.4,0,0.7,0,1.1c4-1.6,14.6-6.5,16-7.1
								c0-0.5,0-1.1,0-1.6C373,91.6,363.5,94.9,360.8,95.8z"/>
							<path class="st10" d="M377,102.5c-1.4,0.4-12.4,4.1-16.5,5.5c0.9,2.6,2.4,5,4.2,7l18.1-4.4
								C380.2,108.5,378.2,105.6,377,102.5z"/>
						</g>
						<g>
							<path class="st1" d="M144.6,105c22.1,22.9,54.8,37.1,89.7,39c31.7,1.7,65.4-6.4,97.3-23.3l5,9.4
								c-33.6,17.9-69.2,26.5-102.8,24.6c-37.5-2-72.8-17.4-96.8-42.3"/>
							<g>
								
									<ellipse transform="matrix(0.8831 -0.4692 0.4692 0.8831 -24.9597 165.5414)" class="st2" cx="319.7" cy="132.9" rx="4.9" ry="16.9"/>
								<path class="st2" d="M315.9,123.4c4.6-6.8,10.7-12.3,17.8-16.2c0.7-0.4,1.8-0.7,2.2,0c0.2,0.5,0.2,1,0,1.4
									c-0.9,2.6-2.4,5-4.4,7c6.9-4,23.4-11.9,25-9.6s-13.5,9.4-21,12.8c7.8-1.9,24.3-9.5,25.4-7.5s-17.1,10.9-21.3,13.4
									c5.7-2.4,20.8-7.7,21.3-6s-12.4,7.8-18.8,10.3c4.1-1.2,17.1-5.1,17.2-3.4s-21.7,12.3-34.2,15.1"/>
								<path class="st3" d="M331.2,110.1c-0.4,0.6-0.9,1.2-1.3,1.8c-0.8,1-2,2.3-3.2,3.5s-2.4,2.4-3.4,3.3c-0.5,0.5-1.1,1-1.7,1.4
									c0.2-0.7,0.6-1.4,0.9-2c1.6-2.8,3.9-5.2,6.7-6.9C329.9,110.7,330.6,110.4,331.2,110.1z"/>
								<path class="st3" d="M325.5,144.3c0,0-0.3-0.2-0.8-0.5c-0.7-0.5-1.4-1-2-1.5c-0.9-0.8-1.7-1.6-2.5-2.5
									c-0.4-0.5-0.9-1-1.3-1.6s-0.8-1.1-1.2-1.7s-0.7-1.2-1-1.8s-0.6-1.2-0.9-1.8c-0.5-1.1-0.9-2.2-1.3-3.3
									c-0.2-0.8-0.4-1.6-0.6-2.4c-0.1-0.6-0.1-0.9-0.1-0.9s0.2,0.3,0.5,0.8l1.2,2.2l0.8,1.4l0.9,1.6c0.6,1.1,1.3,2.2,2,3.3
									s1.5,2.2,2.2,3.3c0.4,0.5,0.7,1,1.1,1.5l1,1.3l1.5,2C325.3,144,325.5,144.3,325.5,144.3z"/>
								<path class="st3" d="M312.6,123.1c-0.2-0.1-0.4-0.2-0.6-0.3c-0.6-0.4-0.7-1.3-0.2-1.9c0,0,0,0,0.1-0.1
									c0.1-0.2,0.3-0.3,0.5-0.4c0.2,0.1,0.3,0.3,0.5,0.4c0.2,0.2,0.4,0.5,0.4,0.8c0,0.3-0.1,0.6-0.2,0.9
									C312.8,122.8,312.7,123,312.6,123.1z"/>
							</g>
						</g>
					</g>
					<g>
						<g>
							
								<ellipse transform="matrix(0.9336 -0.3584 0.3584 0.9336 -18.3226 84.5009)" class="st3" cx="218.8" cy="91.7" rx="11.4" ry="11.4"/>
							
								<ellipse transform="matrix(0.9336 -0.3584 0.3584 0.9336 -4.8114 106.5542)" class="st3" cx="285.1" cy="66.3" rx="11.4" ry="11.4"/>
						</g>
						<g>
							<path class="st23" d="M256.8,103.9c-3.7,0.3-7.3,1.6-10.4,3.6c4.2,3.3,9.9,5.2,16.1,3c2.5-0.9,4.8-2.3,6.7-4.2
								C265.3,104.4,261,103.6,256.8,103.9z"/>
							<path class="st3" d="M270.9,82c-5.3,0.2-7.2,12.9-12.3,14.9s-15.4-7.3-18.8-2.9c-1.9,2.5,1,9.2,6.5,13.5
								c6.8-4.5,15.5-4.9,22.8-1.2C278,97.6,275.3,81.8,270.9,82z"/>
						</g>
						<g>
							
								<ellipse transform="matrix(0.9336 -0.3584 0.3584 0.9336 -9.5779 116.114)" class="st23" cx="308.5" cy="83.9" rx="11.4" ry="7.3"/>
							
								<ellipse transform="matrix(0.9336 -0.3584 0.3584 0.9336 -29.0106 84.4045)" class="st23" cx="213.2" cy="120.5" rx="11.4" ry="7.3"/>
						</g>
					</g>
				</g>
			</g>
		</g>
	</g>
</g>
</svg>
