<svg id="圖層_1" data-name="圖層 1" xmlns="http://www.w3.org/2000/svg" width="309.64" height="43.03" viewBox="0 0 309.64 43.03">
  <title>logo</title>
  <g>
    <g>
      <path d="M309.81,66.53l-0.17.23-0.54.72h0l-0.18.24h0l-0.23.3h0l-0.25.35h0l-0.23.31-0.48.64-0.37.49L306.47,71l-0.19.25,0,0.07-0.14.17,0,0.06-0.23.31L305,72.91l-0.18.24h0l-0.49.65-0.47.64-0.22.33a0,0,0,0,0,0,0l-0.05,0-0.19.23-1.5,2h0l-0.41.54h0l-0.45.61a0,0,0,0,0,0,0h0l-0.46.62-0.08.1-0.58.74-0.19.29h11.11l-0.49.77,0,0.06-0.32.41,0,0.06-0.12.18h0l-0.18.24h0l-0.54.72-0.59.78-0.31.41L308,84l-0.3.42-0.71.95-0.18.24-0.48.66,0,0.06-0.24.3-0.18.24-0.3.41-0.18.24-0.48.65h0l-0.37.48-0.11.17L303,90.67l-0.32.41-0.18.24-0.71,1-0.23.3a0,0,0,0,0,0,0l-0.48.66h0L300.5,94h0l-0.19.24c-0.12.15-.25,0.31-0.37,0.47a2.11,2.11,0,0,0-.14.27l0.29,0h10.48l0.33,0h0v9.58c0,0.45.06,0.4-.39,0.4H290V65.28h0.06l0.37,0.06h19c0.36,0,.73,0,1.09.06l-0.35.63v0.09h0Z" transform="translate(-290 -65.05)" style="fill: #fff"/>
      <path d="M332.22,89h0l0.31-.17,0.65-.37,0.72-.53h0l0.6-.58,1.66-1.95,0.3-.46,0.34-.78,0.38-.9,0.31-1.35,0.06-.31h0L337.66,80H325.54l-0.73.1-2,.55-0.72.3h0l-0.19.11-0.83.48-1.32,1-0.06.11-0.45.43a0.05,0.05,0,0,0,0,0l-0.18.2-0.46.48-0.67,1.05c0.09,0.24-.11.32-0.25,0.43l-0.52,1-0.12.35-0.25,1-0.11.55-0.07.47-0.05.49v0.16c0,0.61,0,.61.65,0.61h10.52l-0.13-.09,0.13,0a2,2,0,0,0-.34-0.06H316.88V89.75h10.6a2,2,0,0,1,.39.08,0,0,0,0,1,0,0l-0.06,0V90L328,90l0.8-.06,1.53-.24h0l0.32-.1,0.23-.07Z" transform="translate(-290 -65.05)" style="fill: #fff"/>
      <g>
        <path d="M334,102.74l-0.36.33-0.61.41h0l-1,.54h0l-0.7.31h0l-1.8.52-0.11,0-0.72.11H316.53l0-.47,0.33-2.1,0.25-.83,0.09-.31a0.06,0.06,0,0,0,0,0l1.38-2.39,0.19-.23L319,98.3l1-1,0.07-.06,0.31-.22,0.28-.2,0.49-.34,2.28-1.07,0.1,0,0.82-.18,0.31-.07,0.31-.09,0.47,0h0.13a0.56,0.56,0,0,0,.2.11h11.46a0.46,0.46,0,0,1,.39.24l0.05,0.3-0.11.84-0.05.3h0l-0.12.55v0.21l-0.28.85a0.08,0.08,0,0,0,0,.06l-0.24.6-0.11.2-0.43.8c-0.11.19-.23,0.38-0.34,0.57h0l-0.3.41-0.42.54Z" transform="translate(-290 -65.05)" style="fill: #fff"/>
        <path d="M329.21,104.58v0.06l0.79-.06v-0.06Z" transform="translate(-290 -65.05)" style="fill: #fff"/>
        <path d="M319.43,98.42a0.2,0.2,0,0,0,.05-0.08,0.35,0.35,0,0,0-.05-0.09,0.2,0.2,0,0,0-.07.06A0.37,0.37,0,0,0,319.43,98.42Z" transform="translate(-290 -65.05)" style="fill: #fff"/>
        <path d="M319.2,98.62l0,0a0.16,0.16,0,0,0-.08,0,0.54,0.54,0,0,0,0,.13Z" transform="translate(-290 -65.05)" style="fill: #fff"/>
      </g>
      <g>
        <path d="M321.65,66.24l1.14-.53,0.18,0,0.29-.09,0.37-.16,0.35-.09,0.7-.11,0.37,0h0.79V65.12l-0.31,0,0.85,0v0.05H326v0.06h11l0.34-.06h0a0.19,0.19,0,0,1,.24.23c0,0.24,0,.49,0,0.74l-0.11.83-0.07.3-0.25,1.07h0l-0.18.49-0.07.27-0.28.49v0.11l-0.42.77-0.51.67-0.32.4-0.4.5h0l-0.9.83-0.2.16,0,0-0.48.35-0.36.24-0.18.11-0.05,0-0.36.22h0l-0.25.12-0.11.05-0.17.08-0.12.06-1.32.47h0l-0.54.11-0.41.07-0.71.11a0.23,0.23,0,0,0-.08-0.08c-0.17,0-.33,0-0.5,0h-11l-0.34.05h-0.23l0-.6,0.08-1.05,0.23-1a0.07,0.07,0,0,0,0-.05l0.43-1.19,0.28-.6,0.19-.35h0l0.18-.31V69.77l0.35-.54,0.3-.35L319,68.4l0.19-.19,0.35-.41v0l0.6-.53h0l0.47-.37Z" transform="translate(-290 -65.05)" style="fill: #fff"/>
        <path d="M316.75,74.07h0v0.28h0V74.07Z" transform="translate(-290 -65.05)" style="fill: #fff"/>
        <path d="M316.82,73.76h-0.06l0,0.15h0Z" transform="translate(-290 -65.05)" style="fill: #fff"/>
      </g>
    </g>
    <g style="isolation: isolate">
      <g style="isolation: isolate">
        <path d="M352.82,82.58V67.78h9.08v2.46h-6.12v3.42H361v2.48h-5.2v4h6.34v2.48h-9.3Z" transform="translate(-290 -65.05)" style="fill: #fff"/>
        <path d="M364.88,82.58V71.38h2.4l0.2,1.48h0.08a5.27,5.27,0,0,1,3.64-1.76q3.46,0,3.46,4.5v7h-2.94V76a3.29,3.29,0,0,0-.37-1.81,1.37,1.37,0,0,0-1.21-.53,2.38,2.38,0,0,0-1.2.32,6.74,6.74,0,0,0-1.14.94v7.7h-2.92Z" transform="translate(-290 -65.05)" style="fill: #fff"/>
        <path d="M380.22,82.58l-3.82-11.2h3L381,77l0.56,2.1q0.22,0.86.34,1.3H382q0.26-1,.82-3.08c0-.15.07-0.25,0.08-0.32l1.64-5.58h2.82l-3.74,11.2h-3.4Z" transform="translate(-290 -65.05)" style="fill: #fff"/>
        <path d="M390.7,69.58a1.81,1.81,0,0,1-1.26-.45,1.59,1.59,0,0,1,0-2.31,1.83,1.83,0,0,1,1.27-.44,1.8,1.8,0,0,1,1.25.44,1.48,1.48,0,0,1,.49,1.16,1.5,1.5,0,0,1-.49,1.14A1.75,1.75,0,0,1,390.7,69.58Zm-1.48,13V71.38h2.92v11.2h-2.92Z" transform="translate(-290 -65.05)" style="fill: #fff"/>
        <path d="M395.3,82.58V71.38h2.4l0.2,2H398a4.9,4.9,0,0,1,1.46-1.68,3,3,0,0,1,1.72-.58,3.43,3.43,0,0,1,1.32.24L402,73.88a3.78,3.78,0,0,0-1.16-.18,2.2,2.2,0,0,0-1.38.5,3.69,3.69,0,0,0-1.2,1.7v6.68H395.3Z" transform="translate(-290 -65.05)" style="fill: #fff"/>
        <path d="M408.46,82.86a5.09,5.09,0,0,1-3.74-1.54,6.56,6.56,0,0,1,0-8.68,5.31,5.31,0,0,1,7.48,0,6.56,6.56,0,0,1,0,8.68A5.09,5.09,0,0,1,408.46,82.86Zm0-2.4a2,2,0,0,0,1.76-.94,5.47,5.47,0,0,0,0-5.06,2.09,2.09,0,0,0-3.52,0,5.47,5.47,0,0,0,0,5.06A2,2,0,0,0,408.46,80.46Z" transform="translate(-290 -65.05)" style="fill: #fff"/>
        <path d="M416.3,82.58V71.38h2.4l0.2,1.48H419a5.27,5.27,0,0,1,3.64-1.76q3.46,0,3.46,4.5v7h-2.94V76a3.29,3.29,0,0,0-.37-1.81,1.37,1.37,0,0,0-1.21-.53,2.38,2.38,0,0,0-1.2.32,6.74,6.74,0,0,0-1.14.94v7.7H416.3Z" transform="translate(-290 -65.05)" style="fill: #fff"/>
        <path d="M429.12,82.58V71.38h2.4l0.2,1.5h0.08a7.87,7.87,0,0,1,1.52-1.26,3.85,3.85,0,0,1,1.92-.52,3.09,3.09,0,0,1,3.08,2,7.79,7.79,0,0,1,1.62-1.38,3.65,3.65,0,0,1,1.94-.58,3.09,3.09,0,0,1,2.64,1.2,5.5,5.5,0,0,1,.84,3.3v7h-2.94V76a3.34,3.34,0,0,0-.38-1.82,1.33,1.33,0,0,0-1.18-.52,3.27,3.27,0,0,0-2.16,1.26v7.7h-2.94V76a3.33,3.33,0,0,0-.38-1.82,1.33,1.33,0,0,0-1.18-.52A3.27,3.27,0,0,0,432,74.88v7.7h-2.92Z" transform="translate(-290 -65.05)" style="fill: #fff"/>
        <path d="M453.26,82.86a5.3,5.3,0,0,1-3.94-1.56A5.77,5.77,0,0,1,447.7,77a6.05,6.05,0,0,1,1.6-4.32,4.85,4.85,0,0,1,3.62-1.58,4.3,4.3,0,0,1,3.5,1.52,5.87,5.87,0,0,1,1.18,3.84,4.9,4.9,0,0,1-.14,1.34h-6.9a3.17,3.17,0,0,0,1,2.08,3,3,0,0,0,2.08.72,4.69,4.69,0,0,0,2.52-.78l1,1.8A6.77,6.77,0,0,1,453.26,82.86Zm-2.74-7h4.56a2.82,2.82,0,0,0-.52-1.82,2,2,0,0,0-1.6-.66,2.23,2.23,0,0,0-1.58.62A3.08,3.08,0,0,0,450.52,75.86Z" transform="translate(-290 -65.05)" style="fill: #fff"/>
        <path d="M460,82.58V71.38h2.4l0.2,1.48h0.08a5.27,5.27,0,0,1,3.64-1.76q3.46,0,3.46,4.5v7h-2.94V76a3.29,3.29,0,0,0-.37-1.81,1.37,1.37,0,0,0-1.21-.53,2.38,2.38,0,0,0-1.2.32,6.74,6.74,0,0,0-1.14.94v7.7H460Z" transform="translate(-290 -65.05)" style="fill: #fff"/>
        <path d="M476.94,82.86q-3.68,0-3.68-4.2v-5h-1.58V71.52l1.72-.14,0.34-3h2.46v3H479V73.7H476.2v5q0,1.88,1.52,1.88a3,3,0,0,0,1.1-.24l0.48,2.14A7.48,7.48,0,0,1,476.94,82.86Z" transform="translate(-290 -65.05)" style="fill: #fff"/>
        <path d="M483.54,82.86a3.21,3.21,0,0,1-2.4-.94,3.26,3.26,0,0,1-.92-2.38,3.14,3.14,0,0,1,1.53-2.79,11.66,11.66,0,0,1,4.91-1.35,1.74,1.74,0,0,0-1.9-1.94,6.55,6.55,0,0,0-3.08,1.06l-1.06-1.94a8.84,8.84,0,0,1,4.68-1.48,4,4,0,0,1,3.21,1.25A5.47,5.47,0,0,1,489.6,76v6.54h-2.4L487,81.38h-0.06A5.24,5.24,0,0,1,483.54,82.86Zm1-2.3a3.14,3.14,0,0,0,2.16-1.1V77.2q-3.64.48-3.64,2.1A1.22,1.22,0,0,0,484.5,80.56Z" transform="translate(-290 -65.05)" style="fill: #fff"/>
        <path d="M495.36,82.86q-2.76,0-2.76-3.42V66.62h2.92v13q0,0.88.6,0.88a2,2,0,0,0,.4,0l0.36,2.18A4,4,0,0,1,495.36,82.86Z" transform="translate(-290 -65.05)" style="fill: #fff"/>
        <path d="M503.68,82.58V67.78h9.08v2.46h-6.12v3.42h5.2v2.48h-5.2v4H513v2.48h-9.3Z" transform="translate(-290 -65.05)" style="fill: #fff"/>
        <path d="M519.44,82.86a4,4,0,0,1-3.34-1.57A6.74,6.74,0,0,1,514.86,77a6.4,6.4,0,0,1,1.44-4.32,4.16,4.16,0,0,1,3.26-1.58,3.7,3.7,0,0,1,1.6.34,4.67,4.67,0,0,1,1.24.88l-0.12-1.76V66.62h2.94v16h-2.38l-0.24-1.16h-0.06A4.43,4.43,0,0,1,519.44,82.86Zm0.76-2.42a2.56,2.56,0,0,0,2.08-1.16V74.36a3,3,0,0,0-2.08-.84,2,2,0,0,0-1.64.88,4.29,4.29,0,0,0-.68,2.56,4.63,4.63,0,0,0,.6,2.6A2,2,0,0,0,520.2,80.44Z" transform="translate(-290 -65.05)" style="fill: #fff"/>
        <path d="M531.7,82.86q-3.44,0-3.44-4.48v-7h2.94V78a3.27,3.27,0,0,0,.38,1.82,1.33,1.33,0,0,0,1.18.52,2.19,2.19,0,0,0,1.19-.32A4.44,4.44,0,0,0,535,78.94V71.38H538v11.2h-2.4L535.36,81h-0.08A4.61,4.61,0,0,1,531.7,82.86Z" transform="translate(-290 -65.05)" style="fill: #fff"/>
        <path d="M545.88,82.86a5.24,5.24,0,0,1-3.9-1.54A6,6,0,0,1,540.42,77a5.78,5.78,0,0,1,1.72-4.36,5.58,5.58,0,0,1,4-1.54,4.91,4.91,0,0,1,3.26,1.24l-1.4,1.9a2.65,2.65,0,0,0-1.72-.74,2.55,2.55,0,0,0-2.07,1,3.87,3.87,0,0,0-.79,2.54,3.83,3.83,0,0,0,.78,2.51,2.47,2.47,0,0,0,2,.95,3.4,3.4,0,0,0,2.18-.9l1.16,1.94A5.35,5.35,0,0,1,545.88,82.86Z" transform="translate(-290 -65.05)" style="fill: #fff"/>
        <path d="M554.18,82.86a3.21,3.21,0,0,1-2.4-.94,3.26,3.26,0,0,1-.92-2.38,3.14,3.14,0,0,1,1.53-2.79,11.66,11.66,0,0,1,4.91-1.35,1.74,1.74,0,0,0-1.9-1.94,6.55,6.55,0,0,0-3.08,1.06l-1.06-1.94a8.84,8.84,0,0,1,4.68-1.48,4,4,0,0,1,3.21,1.25A5.47,5.47,0,0,1,560.24,76v6.54h-2.4l-0.22-1.2h-0.06A5.24,5.24,0,0,1,554.18,82.86Zm1-2.3a3.14,3.14,0,0,0,2.16-1.1V77.2q-3.64.48-3.64,2.1A1.22,1.22,0,0,0,555.14,80.56Z" transform="translate(-290 -65.05)" style="fill: #fff"/>
        <path d="M567,82.86q-3.68,0-3.68-4.2v-5H561.7V71.52l1.72-.14,0.34-3h2.46v3H569V73.7h-2.76v5q0,1.88,1.52,1.88a3,3,0,0,0,1.1-.24l0.48,2.14A7.48,7.48,0,0,1,567,82.86Z" transform="translate(-290 -65.05)" style="fill: #fff"/>
        <path d="M572.74,69.58a1.81,1.81,0,0,1-1.26-.45,1.59,1.59,0,0,1,0-2.31,1.83,1.83,0,0,1,1.27-.44,1.8,1.8,0,0,1,1.25.44,1.48,1.48,0,0,1,.49,1.16,1.5,1.5,0,0,1-.49,1.14A1.75,1.75,0,0,1,572.74,69.58Zm-1.48,13V71.38h2.92v11.2h-2.92Z" transform="translate(-290 -65.05)" style="fill: #fff"/>
        <path d="M582,82.86a5.09,5.09,0,0,1-3.74-1.54,6.56,6.56,0,0,1,0-8.68,5.31,5.31,0,0,1,7.48,0,6.56,6.56,0,0,1,0,8.68A5.09,5.09,0,0,1,582,82.86Zm0-2.4a2,2,0,0,0,1.76-.94,5.47,5.47,0,0,0,0-5.06,2.09,2.09,0,0,0-3.52,0,5.47,5.47,0,0,0,0,5.06A2,2,0,0,0,582,80.46Z" transform="translate(-290 -65.05)" style="fill: #fff"/>
        <path d="M589.86,82.58V71.38h2.4l0.2,1.48h0.08a5.27,5.27,0,0,1,3.64-1.76q3.46,0,3.46,4.5v7H596.7V76a3.29,3.29,0,0,0-.37-1.81,1.37,1.37,0,0,0-1.21-.53,2.38,2.38,0,0,0-1.2.32,6.74,6.74,0,0,0-1.14.94v7.7h-2.92Z" transform="translate(-290 -65.05)" style="fill: #fff"/>
        <path d="M352.82,103.58V88.78h3v14.8h-3Z" transform="translate(-290 -65.05)" style="fill: #fff"/>
        <path d="M359.18,103.58V92.38h2.4l0.2,1.48h0.08a5.27,5.27,0,0,1,3.64-1.76q3.46,0,3.46,4.5v7H366V97a3.29,3.29,0,0,0-.37-1.81,1.37,1.37,0,0,0-1.21-.53,2.38,2.38,0,0,0-1.2.32,6.74,6.74,0,0,0-1.14.94v7.7h-2.92Z" transform="translate(-290 -65.05)" style="fill: #fff"/>
        <path d="M372.5,103.58V94.7H371V92.52l1.5-.12V91.48a4.4,4.4,0,0,1,.9-2.94,3.68,3.68,0,0,1,3-1.2,5.66,5.66,0,0,1,2.12.4L378,89.9a3.51,3.51,0,0,0-1.18-.24q-1.36,0-1.36,1.76v1h2.1V94.7h-2.1v8.88H372.5Z" transform="translate(-290 -65.05)" style="fill: #fff"/>
        <path d="M383.88,103.86a5.09,5.09,0,0,1-3.74-1.54,6.56,6.56,0,0,1,0-8.68,5.31,5.31,0,0,1,7.48,0,6.56,6.56,0,0,1,0,8.68A5.09,5.09,0,0,1,383.88,103.86Zm0-2.4a2,2,0,0,0,1.76-.94,5.47,5.47,0,0,0,0-5.06,2.09,2.09,0,0,0-3.52,0,5.47,5.47,0,0,0,0,5.06A2,2,0,0,0,383.88,101.46Z" transform="translate(-290 -65.05)" style="fill: #fff"/>
        <path d="M391.72,103.58V92.38h2.4l0.2,2h0.08a4.9,4.9,0,0,1,1.46-1.68,3,3,0,0,1,1.72-.58,3.43,3.43,0,0,1,1.32.24l-0.52,2.54a3.78,3.78,0,0,0-1.16-.18,2.2,2.2,0,0,0-1.38.5,3.69,3.69,0,0,0-1.2,1.7v6.68h-2.92Z" transform="translate(-290 -65.05)" style="fill: #fff"/>
        <path d="M400.44,103.58V92.38h2.4l0.2,1.5h0.08a7.87,7.87,0,0,1,1.52-1.26,3.85,3.85,0,0,1,1.92-.52,3.09,3.09,0,0,1,3.08,2,7.79,7.79,0,0,1,1.62-1.38,3.65,3.65,0,0,1,1.94-.58,3.09,3.09,0,0,1,2.64,1.2,5.5,5.5,0,0,1,.84,3.3v7h-2.94V97a3.34,3.34,0,0,0-.38-1.82,1.33,1.33,0,0,0-1.18-.52A3.27,3.27,0,0,0,410,95.88v7.7h-2.94V97a3.33,3.33,0,0,0-.38-1.82,1.33,1.33,0,0,0-1.18-.52,3.27,3.27,0,0,0-2.16,1.26v7.7h-2.92Z" transform="translate(-290 -65.05)" style="fill: #fff"/>
        <path d="M422.48,103.86a3.21,3.21,0,0,1-2.4-.94,3.26,3.26,0,0,1-.92-2.38,3.14,3.14,0,0,1,1.53-2.79,11.66,11.66,0,0,1,4.91-1.35,1.74,1.74,0,0,0-1.9-1.94,6.55,6.55,0,0,0-3.08,1.06l-1.06-1.94a8.84,8.84,0,0,1,4.68-1.48,4,4,0,0,1,3.21,1.25A5.47,5.47,0,0,1,428.54,97v6.54h-2.4l-0.22-1.2h-0.06A5.24,5.24,0,0,1,422.48,103.86Zm1-2.3a3.14,3.14,0,0,0,2.16-1.1V98.2q-3.64.48-3.64,2.1A1.22,1.22,0,0,0,423.44,101.56Z" transform="translate(-290 -65.05)" style="fill: #fff"/>
        <path d="M435.26,103.86q-3.68,0-3.68-4.2v-5H430V92.52l1.72-.14,0.34-3h2.46v3h2.76V94.7h-2.76v5q0,1.88,1.52,1.88a3,3,0,0,0,1.1-.24l0.48,2.14A7.48,7.48,0,0,1,435.26,103.86Z" transform="translate(-290 -65.05)" style="fill: #fff"/>
        <path d="M441,90.58a1.81,1.81,0,0,1-1.26-.45,1.59,1.59,0,0,1,0-2.31,1.83,1.83,0,0,1,1.27-.44,1.8,1.8,0,0,1,1.25.44,1.48,1.48,0,0,1,.49,1.16,1.5,1.5,0,0,1-.49,1.14A1.75,1.75,0,0,1,441,90.58Zm-1.48,13V92.38h2.92v11.2h-2.92Z" transform="translate(-290 -65.05)" style="fill: #fff"/>
        <path d="M450.32,103.86a5.09,5.09,0,0,1-3.74-1.54,6.56,6.56,0,0,1,0-8.68,5.31,5.31,0,0,1,7.48,0,6.56,6.56,0,0,1,0,8.68A5.09,5.09,0,0,1,450.32,103.86Zm0-2.4a2,2,0,0,0,1.76-.94,5.47,5.47,0,0,0,0-5.06,2.09,2.09,0,0,0-3.52,0,5.47,5.47,0,0,0,0,5.06A2,2,0,0,0,450.32,101.46Z" transform="translate(-290 -65.05)" style="fill: #fff"/>
        <path d="M458.16,103.58V92.38h2.4l0.2,1.48h0.08a5.27,5.27,0,0,1,3.64-1.76q3.46,0,3.46,4.5v7H465V97a3.29,3.29,0,0,0-.37-1.81,1.37,1.37,0,0,0-1.21-.53,2.38,2.38,0,0,0-1.2.32,6.74,6.74,0,0,0-1.14.94v7.7h-2.92Z" transform="translate(-290 -65.05)" style="fill: #fff"/>
        <path d="M480.18,103.86a7.82,7.82,0,0,1-2.91-.56,7.6,7.6,0,0,1-2.49-1.6l1.7-2a6.26,6.26,0,0,0,1.8,1.18,4.66,4.66,0,0,0,2,.46,2.91,2.91,0,0,0,1.75-.45,1.47,1.47,0,0,0,.61-1.25,1.44,1.44,0,0,0-.58-1.18,7.72,7.72,0,0,0-1.5-.76l-0.14-.06-2-.84q-3-1.24-3-4a3.85,3.85,0,0,1,1.44-3.06,5.49,5.49,0,0,1,3.68-1.22A6.59,6.59,0,0,1,483,89a6.4,6.4,0,0,1,2.12,1.4l-1.5,1.86A4.86,4.86,0,0,0,480.52,91a2.61,2.61,0,0,0-1.56.42,1.33,1.33,0,0,0-.58,1.14,1.36,1.36,0,0,0,.64,1.14,7.19,7.19,0,0,0,1.54.74l0.14,0.06,1.94,0.82a5.42,5.42,0,0,1,2.16,1.48,3.92,3.92,0,0,1,.82,2.54,4,4,0,0,1-1.44,3.14A5.83,5.83,0,0,1,480.18,103.86Z" transform="translate(-290 -65.05)" style="fill: #fff"/>
        <path d="M489,108.08a5.11,5.11,0,0,1-1.54-.22L488,105.6a2.76,2.76,0,0,0,.78.14,2.12,2.12,0,0,0,2.1-1.7l0.2-.66-4.36-11h3l1.78,5.2q0.22,0.68.64,2.1l0.3,1.06h0.1q0.14-.52.41-1.58t0.39-1.58l1.54-5.2h2.82l-4,11.54A8.36,8.36,0,0,1,491.9,107,4.07,4.07,0,0,1,489,108.08Z" transform="translate(-290 -65.05)" style="fill: #fff"/>
        <path d="M502.68,103.86a6.51,6.51,0,0,1-2.28-.44,7,7,0,0,1-2-1.14l1.34-1.84a4.93,4.93,0,0,0,3,1.22q1.62,0,1.62-1.18a1.12,1.12,0,0,0-.64-0.92,7.73,7.73,0,0,0-1.44-.66L502,98.8A6.76,6.76,0,0,1,500,97.66a2.69,2.69,0,0,1-1-2.12,3.09,3.09,0,0,1,1.14-2.48,4.53,4.53,0,0,1,3-1A6.35,6.35,0,0,1,507,93.48l-1.32,1.78a4.45,4.45,0,0,0-2.42-1,1.83,1.83,0,0,0-1.12.3,0.93,0.93,0,0,0-.36.78,1,1,0,0,0,.56.84,8.64,8.64,0,0,0,1.34.58L504,96.94a7.6,7.6,0,0,1,2.12,1.12,2.84,2.84,0,0,1,1,2.26,3.11,3.11,0,0,1-1.14,2.5A4.9,4.9,0,0,1,502.68,103.86Z" transform="translate(-290 -65.05)" style="fill: #fff"/>
        <path d="M513,103.86q-3.68,0-3.68-4.2v-5h-1.58V92.52l1.72-.14,0.34-3h2.46v3H515V94.7h-2.76v5q0,1.88,1.52,1.88a3,3,0,0,0,1.1-.24l0.48,2.14A7.48,7.48,0,0,1,513,103.86Z" transform="translate(-290 -65.05)" style="fill: #fff"/>
        <path d="M521.8,103.86a5.3,5.3,0,0,1-3.94-1.56,5.77,5.77,0,0,1-1.62-4.3,6.05,6.05,0,0,1,1.6-4.32,4.85,4.85,0,0,1,3.62-1.58,4.3,4.3,0,0,1,3.5,1.52,5.87,5.87,0,0,1,1.18,3.84A4.9,4.9,0,0,1,526,98.8h-6.9a3.17,3.17,0,0,0,1,2.08,3,3,0,0,0,2.08.72,4.69,4.69,0,0,0,2.52-.78l1,1.8A6.77,6.77,0,0,1,521.8,103.86Zm-2.74-7h4.56A2.82,2.82,0,0,0,523.1,95a2,2,0,0,0-1.6-.66,2.23,2.23,0,0,0-1.58.62A3.08,3.08,0,0,0,519.06,96.86Z" transform="translate(-290 -65.05)" style="fill: #fff"/>
        <path d="M528.56,103.58V92.38H531l0.2,1.5h0.08a7.87,7.87,0,0,1,1.52-1.26,3.85,3.85,0,0,1,1.92-.52,3.09,3.09,0,0,1,3.08,2,7.79,7.79,0,0,1,1.62-1.38,3.65,3.65,0,0,1,1.94-.58A3.09,3.09,0,0,1,544,93.3a5.5,5.5,0,0,1,.84,3.3v7h-2.94V97a3.34,3.34,0,0,0-.38-1.82,1.33,1.33,0,0,0-1.18-.52,3.27,3.27,0,0,0-2.16,1.26v7.7H535.2V97a3.33,3.33,0,0,0-.38-1.82,1.33,1.33,0,0,0-1.18-.52,3.27,3.27,0,0,0-2.16,1.26v7.7h-2.92Z" transform="translate(-290 -65.05)" style="fill: #fff"/>
      </g>
    </g>
  </g>
</svg>
